<svg xmlns="http://www.w3.org/2000/svg" xmlns:xlink="http://www.w3.org/1999/xlink" viewBox="0 0 5000 3000"><defs><style>.aa12ae66-b170-4d97-a889-e425bb042917,.e47c99cb-d04e-4158-8648-6224d1153a84{fill:none;}.edafbc1e-a76f-4297-b8f7-5c1b64f6967f{isolation:isolate;}.b643a9ad-0705-47c6-9a1c-d79dd800e0ea{clip-path:url(#fdaacf4b-cc5a-46f7-a853-6c8d6438c947);}.f89aea06-74b7-4b43-a2fa-35ebd4813052{fill:url(#ab7ac978-5b18-4933-9aa6-d700d2c1beec);}.eee84e64-ca90-46f8-8d37-cdb0a8011c53{opacity:0.3;}.e06da2eb-e05a-4562-8705-98ed55d3ffb5{clip-path:url(#a1c9b3f2-908c-4f2f-8cd0-0937784553d5);}.ab6c1f68-d2f5-45aa-a365-d834a276f85f,.af41a0cf-477f-4beb-b8d4-83d079f8bbe1,.afa7b280-9571-49d7-a173-f9b373c3f025,.b067c27e-94e3-4803-905c-2add8570c005,.b8af03a9-b6cc-44c2-b521-92e612babf08{mix-blend-mode:multiply;}.b8af03a9-b6cc-44c2-b521-92e612babf08{fill:url(#acc7b325-c76e-4659-a75a-cc24b7ed5903);}.eebae0b6-2319-40ef-a938-a2b4c78fc216{clip-path:url(#bf4b3175-4937-4a6c-ac97-734ed76e3488);}.afa7b280-9571-49d7-a173-f9b373c3f025{fill:url(#e97b45ea-db0b-476d-90f3-b5047ff14ca0);}.ffd658e9-ea0b-41be-bbdf-7ade9b49fa2f{clip-path:url(#b93e6743-47df-43f0-95d6-b131093758f4);}.b067c27e-94e3-4803-905c-2add8570c005{fill:url(#e80a5104-a673-4fc1-9a55-032ebd0c18ca);}.b4c390f0-2438-4393-9fe2-1e369df481cb{clip-path:url(#afbf9d98-bb77-4141-ac98-88078e75eb7f);}.ab6c1f68-d2f5-45aa-a365-d834a276f85f{fill:url(#a2afa03e-dbed-4e09-acf8-c0f693a6a427);}.b63cf7bb-9efd-42c0-bc2b-b765e4d43024{clip-path:url(#ad152e32-a775-4f56-8146-9c67b7b7b9c4);}.af41a0cf-477f-4beb-b8d4-83d079f8bbe1{fill:url(#a929a0b6-bee7-4f30-a1fb-1607dd78fd1b);}.b1794c31-3155-46ed-9173-973c64c1e736,.e32ddc93-3a31-444c-bc30-c04e720e48e8{fill:#fff;}.b03d65b0-7941-4efa-a129-aa29dd3ad5f8,.b1794c31-3155-46ed-9173-973c64c1e736{opacity:0.5;}.aa12ae66-b170-4d97-a889-e425bb042917{stroke:#fff;stroke-miterlimit:10;stroke-width:5px;}</style><clipPath id="fdaacf4b-cc5a-46f7-a853-6c8d6438c947"><rect class="e47c99cb-d04e-4158-8648-6224d1153a84" width="5000" height="3000"/></clipPath><linearGradient id="ab7ac978-5b18-4933-9aa6-d700d2c1beec" x1="500" y1="3500" x2="4500" y2="-500" gradientUnits="userSpaceOnUse"><stop offset="0" stop-color="#04c4c1"/><stop offset="0.10301" stop-color="#34cdaa"/><stop offset="0.23283" stop-color="#69d791"/><stop offset="0.36448" stop-color="#97e07b"/><stop offset="0.4951" stop-color="#bce769"/><stop offset="0.62459" stop-color="#daec5b"/><stop offset="0.75261" stop-color="#eef051"/><stop offset="0.87856" stop-color="#fbf24b"/><stop offset="1" stop-color="#fff349"/></linearGradient><clipPath id="a1c9b3f2-908c-4f2f-8cd0-0937784553d5"><rect class="e47c99cb-d04e-4158-8648-6224d1153a84" x="-1682.33606" y="-47.35434" width="5506.00002" height="286.37867" transform="translate(245.82466 785.14319) rotate(-45)"/></clipPath><radialGradient id="acc7b325-c76e-4659-a75a-cc24b7ed5903" cx="1641.33471" cy="-13505.97909" r="1663.29777" gradientTransform="translate(-1746.26676 2320.42103) scale(1.65491 0.17225)" gradientUnits="userSpaceOnUse"><stop offset="0"/><stop offset="0.11018" stop-color="#343434"/><stop offset="0.23902" stop-color="#696969"/><stop offset="0.36959" stop-color="#979797"/><stop offset="0.49917" stop-color="#bcbcbc"/><stop offset="0.62762" stop-color="#dadada"/><stop offset="0.75461" stop-color="#eee"/><stop offset="0.87954" stop-color="#fbfbfb"/><stop offset="1" stop-color="#fff"/></radialGradient><clipPath id="bf4b3175-4937-4a6c-ac97-734ed76e3488"><rect class="e47c99cb-d04e-4158-8648-6224d1153a84" x="-2617.04278" y="2348.23971" width="5506.00002" height="343.77333" transform="translate(-1742.17761 834.26432) rotate(-45)"/></clipPath><radialGradient id="e97b45ea-db0b-476d-90f3-b5047ff14ca0" cx="206.11081" cy="-8550.93349" r="1663.35801" gradientTransform="translate(-326.09531 4165.97315) scale(1.65491 0.20676)" xlink:href="#acc7b325-c76e-4659-a75a-cc24b7ed5903"/><clipPath id="b93e6743-47df-43f0-95d6-b131093758f4"><rect class="e47c99cb-d04e-4158-8648-6224d1153a84" x="1191.95377" y="204.24021" width="5506.00002" height="343.77333" transform="translate(889.48854 2899.66881) rotate(-45)"/></clipPath><radialGradient id="e80a5104-a673-4fc1-9a55-032ebd0c18ca" cx="2749.69144" cy="-2856.68895" r="1663.35802" gradientTransform="translate(-726.50262 844.64291) scale(1.65491 0.20676)" xlink:href="#acc7b325-c76e-4659-a75a-cc24b7ed5903"/><clipPath id="afbf9d98-bb77-4141-ac98-88078e75eb7f"><rect class="e47c99cb-d04e-4158-8648-6224d1153a84" x="-685.04449" y="2642.23957" width="5505.99996" height="343.77326" transform="translate(-1384.19762 2286.50409) rotate(-45)"/></clipPath><radialGradient id="a2afa03e-dbed-4e09-acf8-c0f693a6a427" cx="905.99053" cy="-938.08088" r="1663.35802" gradientTransform="translate(447.66315 2885.9546) scale(1.65491 0.20676)" xlink:href="#acc7b325-c76e-4659-a75a-cc24b7ed5903"/><clipPath id="ad152e32-a775-4f56-8146-9c67b7b7b9c4"><rect class="e47c99cb-d04e-4158-8648-6224d1153a84" x="2909.95553" y="635.23957" width="5505.99995" height="343.77326" transform="translate(1087.91712 4240.71638) rotate(-45)"/></clipPath><radialGradient id="a929a0b6-bee7-4f30-a1fb-1607dd78fd1b" cx="3299.59847" cy="4492.83567" r="1663.35802" gradientTransform="translate(81.45096 -243.93097) scale(1.65491 0.20676)" xlink:href="#acc7b325-c76e-4659-a75a-cc24b7ed5903"/></defs><g class="edafbc1e-a76f-4297-b8f7-5c1b64f6967f"><g id="b494c8cd-7111-4b58-a058-8ff42289666f" data-name="Layer 1"><g class="b643a9ad-0705-47c6-9a1c-d79dd800e0ea"><rect class="f89aea06-74b7-4b43-a2fa-35ebd4813052" width="5000" height="3000"/><g class="eee84e64-ca90-46f8-8d37-cdb0a8011c53"><g class="e06da2eb-e05a-4562-8705-98ed55d3ffb5"><ellipse class="b8af03a9-b6cc-44c2-b521-92e612babf08" cx="969.99892" cy="-6.00025" rx="2753.00002" ry="286.46475" transform="translate(288.34892 684.13538) rotate(-45)"/></g></g><g class="eee84e64-ca90-46f8-8d37-cdb0a8011c53"><g class="eebae0b6-2319-40ef-a938-a2b4c78fc216"><ellipse class="afa7b280-9571-49d7-a173-f9b373c3f025" cx="15.0001" cy="2397.99905" rx="2753.00001" ry="343.87667" transform="translate(-1691.24796 712.96433) rotate(-45)"/></g></g><g class="eee84e64-ca90-46f8-8d37-cdb0a8011c53"><g class="ffd658e9-ea0b-41be-bbdf-7ade9b49fa2f"><ellipse class="b067c27e-94e3-4803-905c-2add8570c005" cx="3823.9967" cy="253.99955" rx="2753.00001" ry="343.87667" transform="translate(940.4179 2778.36874) rotate(-45)"/></g></g><g class="eee84e64-ca90-46f8-8d37-cdb0a8011c53"><g class="b4c390f0-2438-4393-9fe2-1e369df481cb"><ellipse class="ab6c1f68-d2f5-45aa-a365-d834a276f85f" cx="1946.9984" cy="2691.99885" rx="2753.00002" ry="343.87667" transform="translate(-1333.26801 2165.20398) rotate(-45)"/></g></g><g class="eee84e64-ca90-46f8-8d37-cdb0a8011c53"><g class="b63cf7bb-9efd-42c0-bc2b-b765e4d43024"><ellipse class="af41a0cf-477f-4beb-b8d4-83d079f8bbe1" cx="5541.9984" cy="684.99885" rx="2753.00001" ry="343.87667" transform="translate(1138.84642 4119.41617) rotate(-45)"/></g></g><rect class="b1794c31-3155-46ed-9173-973c64c1e736" x="638.69479" y="1841.90051" width="1584.32409" height="8.48528" transform="translate(-886.33207 1552.49136) rotate(-45)"/><rect class="b1794c31-3155-46ed-9173-973c64c1e736" x="1113.69481" y="3367.90051" width="1584.32408" height="8.48528" transform="translate(-1826.25274 2335.32216) rotate(-45)"/><rect class="b1794c31-3155-46ed-9173-973c64c1e736" x="3152.69481" y="2074.90051" width="1584.32408" height="8.48528" transform="translate(-314.7544 3398.40196) rotate(-45)"/><rect class="b1794c31-3155-46ed-9173-973c64c1e736" x="2891.69481" y="308.90051" width="1584.32408" height="8.48528" transform="translate(857.55105 2696.59766) rotate(-45)"/><rect class="b1794c31-3155-46ed-9173-973c64c1e736" x="189.6948" y="-77.09949" width="1584.32409" height="8.48528" transform="translate(339.09678 672.93835) rotate(-45)"/><g class="b03d65b0-7941-4efa-a129-aa29dd3ad5f8"><path class="e32ddc93-3a31-444c-bc30-c04e720e48e8" d="M1962.2025-34.2025a300.61863,300.61863,0,0,0-49.1299,64.5114L2026.7139-83.3325A300.62454,300.62454,0,0,0,1962.2025-34.2025Z"/><path class="e32ddc93-3a31-444c-bc30-c04e720e48e8" d="M2106.5749-114.4125,1881.9925,110.17q-2.20455,9.5268-3.7777,19.1591L2125.734-118.1902Q2116.10805-116.61235,2106.5749-114.4125Z"/><path class="e32ddc93-3a31-444c-bc30-c04e720e48e8" d="M2178.4686-122.1437,1874.2614,182.0635q.09525,7.41675.5568,14.8247l318.4749-318.4751Q2185.8876-122.04635,2178.4686-122.1437Z"/><path class="e32ddc93-3a31-444c-bc30-c04e720e48e8" d="M2236.2819-115.7946,1880.6105,239.8769q1.3101,6.27,2.8896,12.4918l365.2736-365.2738Q2242.5535-114.48445,2236.2819-115.7946Z"/><path class="e32ddc93-3a31-444c-bc30-c04e720e48e8" d="M2285.6164-100.9666l-390.1779,390.178q2.165,5.4501,4.5509,10.8304L2296.4469-96.4157Q2291.06745-98.80175,2285.6164-100.9666Z"/><path class="e32ddc93-3a31-444c-bc30-c04e720e48e8" d="M2328.5736-79.7613l-411.93,411.9298q2.85825,4.779,5.9088,9.4728l415.494-415.494Q2333.353-76.90325,2328.5736-79.7613Z"/><path class="e32ddc93-3a31-444c-bc30-c04e720e48e8" d="M2366.1407-53.166,1943.239,369.7357q3.47085,4.18125,7.1169,8.2645L2374.4054-46.0493Q2370.3224-49.6946,2366.1407-53.166Z"/><path class="e32ddc93-3a31-444c-bc30-c04e720e48e8" d="M2398.7959-21.6588,1974.7464,402.3908q4.08285,3.64545,8.2646,7.1167L2405.9126-13.394Q2402.4419-17.5754,2398.7959-21.6588Z"/><path class="e32ddc93-3a31-444c-bc30-c04e720e48e8" d="M2426.5994,14.7002l-415.494,415.4941q4.6929,3.0507,9.4726,5.9087l411.93-411.93Q2429.6499,19.39415,2426.5994,14.7002Z"/><path class="e32ddc93-3a31-444c-bc30-c04e720e48e8" d="M2449.1623,56.2997,2052.7048,452.7573q5.3793,2.3862,10.8305,4.5509l390.1779-390.178Q2451.54825,61.6801,2449.1623,56.2997Z"/><path class="e32ddc93-3a31-444c-bc30-c04e720e48e8" d="M2465.6516,103.9729,2100.3779,469.2466q6.2202,1.5795,12.4918,2.8896l355.6715-355.6715Q2467.23125,110.19455,2465.6516,103.9729Z"/><path class="e32ddc93-3a31-444c-bc30-c04e720e48e8" d="M2474.3334,159.4535l-318.475,318.475q7.40565.45945,14.8247.5567L2474.8903,174.278Q2474.7949,166.86125,2474.3334,159.4535Z"/><path class="e32ddc93-3a31-444c-bc30-c04e720e48e8" d="M2470.9368,227.0125,2223.4175,474.5318q9.626-1.578,19.1591-3.7776L2467.159,246.1717Q2469.36385,236.64475,2470.9368,227.0125Z"/><path class="e32ddc93-3a31-444c-bc30-c04e720e48e8" d="M2322.4378,439.6741a302.28558,302.28558,0,0,0,113.6413-113.6414Z"/></g><g class="b03d65b0-7941-4efa-a129-aa29dd3ad5f8"><path class="e32ddc93-3a31-444c-bc30-c04e720e48e8" d="M2843.0061,2860.0232a42.634,42.634,0,1,1,42.634,42.634A42.68214,42.68214,0,0,1,2843.0061,2860.0232Zm5.2312,0a37.4028,37.4028,0,1,0,37.4028-37.4029A37.44523,37.44523,0,0,0,2848.2373,2860.0232Z"/><path class="e32ddc93-3a31-444c-bc30-c04e720e48e8" d="M2799.108,2860.0665a86.57575,86.57575,0,1,1,86.5758,86.5758A86.67391,86.67391,0,0,1,2799.108,2860.0665Zm5.2311,0a81.34465,81.34465,0,1,0,81.3447-81.3445A81.43672,81.43672,0,0,0,2804.3391,2860.0665Z"/><path class="e32ddc93-3a31-444c-bc30-c04e720e48e8" d="M2793.4372,2952.4002a130.51758,130.51758,0,1,1,92.29,38.2278A129.66357,129.66357,0,0,1,2793.4372,2952.4002Zm-32.9964-92.2897a125.2864,125.2864,0,1,0,125.2864-125.2864A125.42837,125.42837,0,0,0,2760.4408,2860.1105Z"/><path class="e32ddc93-3a31-444c-bc30-c04e720e48e8" d="M2762.4094,2983.5154a174.45964,174.45964,0,1,1,123.3615,51.0979A173.31786,173.31786,0,0,1,2762.4094,2983.5154Zm-45.8667-123.3615c0,93.3129,75.9155,169.2282,169.2282,169.2282s169.2282-75.9153,169.2282-169.2282-75.9155-169.2282-169.2282-169.2282S2716.5427,2766.841,2716.5427,2860.1539Z"/><path class="e32ddc93-3a31-444c-bc30-c04e720e48e8" d="M2800.8023,3061.4342a219.10873,219.10873,0,1,1,85.0122,17.1643A217.67078,217.67078,0,0,1,2800.8023,3061.4342Zm-128.1577-201.2369c0,117.5424,95.6276,213.17,213.1699,213.17,117.5424,0,213.17-95.6276,213.17-213.17,0-117.5423-95.6276-213.1699-213.17-213.1699C2768.2722,2647.0274,2672.6446,2742.655,2672.6446,2860.1973Z"/><path class="e32ddc93-3a31-444c-bc30-c04e720e48e8" d="M2783.7414,3101.9671a263.20032,263.20032,0,1,1,102.1166,20.6171A261.47773,261.47773,0,0,1,2783.7414,3101.9671Zm-154.9952-241.7258c0,141.7717,115.3398,257.1117,257.1118,257.1117s257.1117-115.34,257.1117-257.1117S3027.63,2603.1295,2885.858,2603.1295,2628.7462,2718.4696,2628.7462,2860.2413Z"/><path class="e32ddc93-3a31-444c-bc30-c04e720e48e8" d="M2766.6812,3142.4989a307.28287,307.28287,0,1,1,119.2205,24.0705A305.246,305.246,0,0,1,2766.6812,3142.4989Zm-181.8331-282.2142c0,166.0016,135.052,301.0536,301.0536,301.0536,166.0015,0,301.0535-135.052,301.0535-301.0536s-135.052-301.0536-301.0535-301.0536C2719.9001,2559.2311,2584.8481,2694.2831,2584.8481,2860.2847Z"/></g><polygon class="e32ddc93-3a31-444c-bc30-c04e720e48e8" points="170.702 1081.791 12.613 1239.88 13.431 1242.934 173.756 1082.609 170.702 1081.791"/><polygon class="e32ddc93-3a31-444c-bc30-c04e720e48e8" points="192.357 1087.593 18.416 1261.535 19.904 1267.088 197.91 1089.081 192.357 1087.593"/><polygon class="e32ddc93-3a31-444c-bc30-c04e720e48e8" points="216.511 1094.065 24.888 1285.689 26.376 1291.242 222.064 1095.553 216.511 1094.065"/><polygon class="e32ddc93-3a31-444c-bc30-c04e720e48e8" points="240.665 1100.538 31.36 1309.843 32.848 1315.396 246.218 1102.025 240.665 1100.538"/><polygon class="e32ddc93-3a31-444c-bc30-c04e720e48e8" points="264.819 1107.01 37.832 1333.997 39.32 1339.55 270.372 1108.497 264.819 1107.01"/><polygon class="e32ddc93-3a31-444c-bc30-c04e720e48e8" points="288.973 1113.482 44.304 1358.151 45.792 1363.704 294.526 1114.969 288.973 1113.482"/><polygon class="e32ddc93-3a31-444c-bc30-c04e720e48e8" points="313.127 1119.954 50.776 1382.305 52.264 1387.858 318.68 1121.441 313.127 1119.954"/><polygon class="e32ddc93-3a31-444c-bc30-c04e720e48e8" points="337.281 1126.426 57.248 1406.459 58.736 1412.011 342.834 1127.914 337.281 1126.426"/><polygon class="e32ddc93-3a31-444c-bc30-c04e720e48e8" points="361.435 1132.898 63.72 1430.613 65.208 1436.165 366.988 1134.386 361.435 1132.898"/><polygon class="e32ddc93-3a31-444c-bc30-c04e720e48e8" points="70.478 1455.833 74.964 1457.035 387.858 1144.141 386.656 1139.656 385.589 1139.37 70.192 1454.767 70.478 1455.833"/><polygon class="e32ddc93-3a31-444c-bc30-c04e720e48e8" points="99.118 1463.507 394.33 1168.295 392.842 1162.743 93.565 1462.02 99.118 1463.507"/><polygon class="e32ddc93-3a31-444c-bc30-c04e720e48e8" points="123.272 1469.979 400.802 1192.449 399.314 1186.897 117.719 1468.492 123.272 1469.979"/><polygon class="e32ddc93-3a31-444c-bc30-c04e720e48e8" points="147.425 1476.451 407.274 1216.603 405.786 1211.051 141.873 1474.964 147.425 1476.451"/><polygon class="e32ddc93-3a31-444c-bc30-c04e720e48e8" points="171.579 1482.923 413.746 1240.757 412.258 1235.204 166.027 1481.436 171.579 1482.923"/><polygon class="e32ddc93-3a31-444c-bc30-c04e720e48e8" points="195.733 1489.395 420.218 1264.911 418.73 1259.359 190.181 1487.908 195.733 1489.395"/><polygon class="e32ddc93-3a31-444c-bc30-c04e720e48e8" points="219.887 1495.868 426.69 1289.065 425.202 1283.512 214.335 1494.38 219.887 1495.868"/><polygon class="e32ddc93-3a31-444c-bc30-c04e720e48e8" points="244.041 1502.34 433.162 1313.219 431.674 1307.666 238.489 1500.852 244.041 1502.34"/><polygon class="e32ddc93-3a31-444c-bc30-c04e720e48e8" points="268.195 1508.811 439.634 1337.373 438.146 1331.82 262.642 1507.324 268.195 1508.811"/><polygon class="e32ddc93-3a31-444c-bc30-c04e720e48e8" points="4713.925 1809.075 4715.156 1813.671 4718.52 1810.307 4713.925 1809.075"/><polygon class="e32ddc93-3a31-444c-bc30-c04e720e48e8" points="4735.647 1814.896 4719.745 1830.798 4721.984 1839.153 4744.002 1817.135 4735.647 1814.896"/><polygon class="e32ddc93-3a31-444c-bc30-c04e720e48e8" points="4761.13 1821.724 4726.573 1856.281 4728.812 1864.635 4769.485 1823.963 4761.13 1821.724"/><polygon class="e32ddc93-3a31-444c-bc30-c04e720e48e8" points="4786.612 1828.552 4733.401 1881.763 4735.64 1890.118 4794.967 1830.791 4786.612 1828.552"/><polygon class="e32ddc93-3a31-444c-bc30-c04e720e48e8" points="4812.095 1835.38 4740.229 1907.245 4742.468 1915.6 4820.45 1837.619 4812.095 1835.38"/><polygon class="e32ddc93-3a31-444c-bc30-c04e720e48e8" points="4837.577 1842.208 4747.057 1932.728 4749.296 1941.083 4845.932 1844.447 4837.577 1842.208"/><polygon class="e32ddc93-3a31-444c-bc30-c04e720e48e8" points="4863.06 1849.036 4753.885 1958.21 4756.124 1966.565 4871.415 1851.275 4863.06 1849.036"/><polygon class="e32ddc93-3a31-444c-bc30-c04e720e48e8" points="4888.542 1855.864 4760.713 1983.693 4762.952 1992.048 4896.897 1858.103 4888.542 1855.864"/><polygon class="e32ddc93-3a31-444c-bc30-c04e720e48e8" points="4914.025 1862.692 4767.541 2009.175 4769.78 2017.53 4922.38 1864.931 4914.025 1862.692"/><polygon class="e32ddc93-3a31-444c-bc30-c04e720e48e8" points="4939.507 1869.52 4774.369 2034.658 4776.608 2043.013 4947.862 1871.759 4939.507 1869.52"/><polygon class="e32ddc93-3a31-444c-bc30-c04e720e48e8" points="4964.99 1876.348 4781.197 2060.14 4783.436 2068.495 4973.345 1878.587 4964.99 1876.348"/><polygon class="e32ddc93-3a31-444c-bc30-c04e720e48e8" points="4990.472 1883.176 4788.025 2085.623 4790.264 2093.978 4998.827 1885.415 4990.472 1883.176"/><polygon class="e32ddc93-3a31-444c-bc30-c04e720e48e8" points="5015.955 1890.004 4794.853 2111.105 4797.092 2119.46 5024.309 1892.243 5015.955 1890.004"/><polygon class="e32ddc93-3a31-444c-bc30-c04e720e48e8" points="5041.437 1896.832 4801.681 2136.588 4803.92 2144.943 5049.792 1899.071 5041.437 1896.832"/><polygon class="e32ddc93-3a31-444c-bc30-c04e720e48e8" points="4808.509 2162.07 4810.748 2170.425 5075.274 1905.899 5066.919 1903.66 4808.509 2162.07"/><circle class="e32ddc93-3a31-444c-bc30-c04e720e48e8" cx="454.5" cy="278.5" r="21.5"/><circle class="e32ddc93-3a31-444c-bc30-c04e720e48e8" cx="3220" cy="285" r="28"/><circle class="e32ddc93-3a31-444c-bc30-c04e720e48e8" cx="2218.5" cy="2144.5" r="25.5"/><circle class="e32ddc93-3a31-444c-bc30-c04e720e48e8" cx="4661.5" cy="1278.5" r="19.5"/><circle class="e32ddc93-3a31-444c-bc30-c04e720e48e8" cx="392" cy="2798" r="25"/><circle class="aa12ae66-b170-4d97-a889-e425bb042917" cx="4191.5" cy="2585.5" r="32"/><circle class="aa12ae66-b170-4d97-a889-e425bb042917" cx="1010" cy="1392" r="28.5"/><circle class="aa12ae66-b170-4d97-a889-e425bb042917" cx="2525" cy="2119" r="25.5"/></g></g></g></svg>