<svg xmlns="http://www.w3.org/2000/svg" viewBox="0 0 3724 2100"><defs><style>.bfb676cb-4c2a-416a-8d10-31aaa2fd3a46{fill:#4f5d75;}.af775c86-3ebc-4a81-9e2c-e78af2606156,.b7d512a9-da10-4875-9cc1-296032a44fba{fill:#ef8354;}.af775c86-3ebc-4a81-9e2c-e78af2606156{opacity:0.5;}.a17b65f0-146f-4645-b183-dbb681a90b64{fill:#fff;}.e08b28e5-286e-4271-844f-11f925b62033{fill:#55657c;}</style></defs><g id="afcd8ab6-f9fd-415b-86af-92d1841b67e6" data-name="background"><rect id="a83687aa-995e-4ffd-8ef6-72f5d1128542" data-name="background" class="bfb676cb-4c2a-416a-8d10-31aaa2fd3a46" width="3724" height="2100"/><g id="a8e54cf7-28e1-441e-9beb-6c5dfa911170" data-name="liquid shapes"><g id="b2e69dcb-037a-4d4b-9ab0-a5031974cf8b" data-name="transparent"><path class="af775c86-3ebc-4a81-9e2c-e78af2606156" d="M654.96,1014.9502c-46.62,96.4499-123.14,174.47-193.33,255.3999-70.19,80.9399-137.12,170.6099-157.59,275.77-24.26,124.6802,19.93,250.9102,44.88,375.4502C360.58,1979.79,367.71,2040.2202,367.37,2100H0V0H495.71c-37.93,45.79-85.19,88.4702-111.08,119.7402C322.85,194.3601,257.1,283.25,275.56,378.3501c16.36,84.24,93.87,141.5,169.4,182.22,75.53,40.7199,159,76.8901,207.48,147.6999C712.95,796.6702,701.59,918.4902,654.96,1014.9502Z"/><path class="af775c86-3ebc-4a81-9e2c-e78af2606156" d="M3724,0V2100H3276.99c-4.3601-19.5698-8.53-39.1699-12.6699-58.7197q-43.6953-206.1753-87.4102-412.3501c-21.0198-99.1699-41.8198-203.7998-10.6699-300.26,39.49-122.26,152.04-202.93,249.8801-286.2,97.8399-83.27,193.5899-195.9202,178.5398-323.52-17.2698-146.4199-167.9199-234.3301-247.5898-358.3801C3279.3201,255.0901,3265.77,117.0303,3310.1699,0Z"/></g><g id="f88710c8-1ed2-4f2d-b014-5fb505553f7a" data-name="orange"><path class="b7d512a9-da10-4875-9cc1-296032a44fba" d="M604.31,1581.1201c-90.6,77.5801-233.23,60.8198-329.66,131.0298-97.3,70.8604-117.49,204.5601-138.79,323.02-3.83,21.3003-8.46,43.1304-14.13,64.8301H0V199.4702c65.74-6.56,132.49-8.75,201.74-3.4001,48.98,3.78,99.26,10.6401,141.79,35.2102C386.07,255.8601,419.41,302.04,415.39,351c-5.47,66.6501-71.79,108.6602-110.26,163.3601-78.58,111.71-33.02,270.29,48.25,380.0601,81.26,109.77,193.83,194.9599,265.69,311.1101C690.93,1321.6702,708.06,1492.29,604.31,1581.1201Z"/><path class="b7d512a9-da10-4875-9cc1-296032a44fba" d="M3724,0V1888.8599c-40.5801-6.2295-78.3201-23.71-108.27-54.7696-109.0899-113.1103-47.5-312.9804-133.97-444.1801-87.5701-132.8602-302.6399-158.2901-351.1599-309.8301-43.6802-136.43,81.79-265.26,200.6199-345.26,118.82-80.01,259.25-174.3999,262.83-317.5999,3.3299-133-115.9499-235.1401-158-361.3601A248.68885,248.68885,0,0,1,3424.6299,0Z"/></g></g><g id="a17b4412-9089-4893-95af-5fdf04222487" data-name="dot"><circle class="a17b65f0-146f-4645-b183-dbb681a90b64" cx="58.9508" cy="308.09803" r="13.29451" transform="translate(-113.41652 46.01198) rotate(-22.49997)"/><circle class="a17b65f0-146f-4645-b183-dbb681a90b64" cx="58.9508" cy="471.48798" r="13.29442" transform="translate(-415.89193 454.15343) rotate(-80.78251)"/><circle class="a17b65f0-146f-4645-b183-dbb681a90b64" cx="58.9508" cy="634.87793" r="13.29451" transform="translate(-238.46964 70.88656) rotate(-22.49997)"/><circle class="a17b65f0-146f-4645-b183-dbb681a90b64" cx="58.9508" cy="798.26787" r="13.29442" transform="translate(-738.45226 728.58891) rotate(-80.78251)"/><circle class="a17b65f0-146f-4645-b183-dbb681a90b64" cx="58.9508" cy="961.6578" r="13.2945"/><circle class="a17b65f0-146f-4645-b183-dbb681a90b64" cx="58.9508" cy="1125.04772" r="13.29451" transform="translate(-426.04928 108.19843) rotate(-22.49997)"/><circle class="a17b65f0-146f-4645-b183-dbb681a90b64" cx="58.9508" cy="1288.43768" r="13.29442" transform="translate(-1222.2927 1140.24207) rotate(-80.78251)"/><circle class="a17b65f0-146f-4645-b183-dbb681a90b64" cx="3665.0492" cy="811.56232" r="13.29451" transform="translate(-31.58651 1464.32832) rotate(-22.49997)"/><circle class="a17b65f0-146f-4645-b183-dbb681a90b64" cx="3665.0492" cy="974.95227" r="13.29442" transform="translate(2115.60927 4436.5059) rotate(-80.78251)"/><circle class="a17b65f0-146f-4645-b183-dbb681a90b64" cx="3665.0492" cy="1138.3422" r="13.2945"/><circle class="a17b65f0-146f-4645-b183-dbb681a90b64" cx="3665.0492" cy="1301.73212" r="13.29451" transform="translate(-219.16616 1501.64019) rotate(-22.49997)"/><circle class="a17b65f0-146f-4645-b183-dbb681a90b64" cx="3665.0492" cy="1465.12208" r="13.29442" transform="translate(1631.76883 4848.15906) rotate(-80.78251)"/><circle class="a17b65f0-146f-4645-b183-dbb681a90b64" cx="3665.0492" cy="1628.51203" r="13.29451" transform="translate(-344.21926 1526.51476) rotate(-22.49997)"/><circle class="a17b65f0-146f-4645-b183-dbb681a90b64" cx="3665.0492" cy="1791.90198" r="13.29442" transform="translate(1309.2085 5122.59454) rotate(-80.78251)"/></g></g><g id="b95e2424-63ee-4da3-8e44-37c283f66f4f" data-name="frame"><g id="a1357ba5-c112-4f0c-9efc-c0fe73a75ee1" data-name="line"><path class="b7d512a9-da10-4875-9cc1-296032a44fba" d="M1047.2946,74.6604c78.8499-29.883,163.4627-44.0488,247.7351-42.4691a660.96019,660.96019,0,0,1,125.405,14.7173l15.4464,3.3727,15.2863,4.0375,7.6425,2.0226,3.8213,1.0113c1.2759.3298,2.5203.7686,3.782,1.1476l15.0934,4.7117,7.548,2.3531c2.5162.7839,4.9756,1.7368,7.4662,2.597l14.9,5.2926,14.73,5.7459,7.3573,2.8931,7.2784,3.0845c4.8458,2.0714,9.72,4.0793,14.5427,6.2032l14.3998,6.5262c4.8209,2.1314,9.5502,4.4567,14.3063,6.7254,4.7402,2.3008,9.5316,4.4998,14.2302,6.8843l14.132,7.0824c4.7235,2.3363,9.3646,4.8304,14.0511,7.2379,9.376,4.8111,18.6432,9.8231,27.9461,14.7699,37.1158,19.9576,73.7783,40.7287,111.0538,60.3163,4.6667,2.4336,9.2984,4.9362,13.9936,7.313l14.0658,7.1683q3.5067,1.81185,7.0617,3.5249l7.0888,3.4687c4.7314,2.3002,9.4345,4.6624,14.2088,6.8679q28.5276,13.4913,57.9835,24.8512c39.2636,15.0022,79.813,26.9258,121.3156,33.4864,2.5902.4232,5.1937.7575,7.7896,1.1407,2.5968.3796,5.1945.7515,7.8034,1.0341l7.817.9226,7.8363.7254,3.9189.3505,3.9259.2569c2.6177.1596,5.233.3692,7.8525.4879,5.2412.1875,10.4802.456,15.7246.4402,5.2439.1152,10.4846-.0456,15.7258-.1459,2.6201-.06,5.2354-.2444,7.8533-.3603l3.9258-.1979c1.3081-.0719,2.612-.2045,3.9182-.3037l7.8335-.6439,7.8076-.8946c1.2998-.1592,2.6055-.2751,3.9006-.4697l3.886-.5766c2.5874-.4039,5.1887-.7243,7.7644-1.1962l7.7268-1.4162,1.9317-.3539,1.9184-.419,3.8357-.8421c5.1333-1.043,10.1824-2.4369,15.2561-3.7246,2.5278-.6775,5.0244-1.4685,7.5379-2.1969l3.7641-1.1144c1.2505-.3852,2.4832-.8282,3.7258-1.2382l7.4417-2.5069c2.4707-.8638,4.9036-1.8374,7.3574-2.7504,19.6057-7.4005,38.4517-16.733,56.7947-26.9289,36.6985-20.4637,71.1987-44.6863,106.5813-67.6233,17.696-11.4704,35.6697-22.5853,54.198-32.7791,9.3196-4.9936,18.686-9.9251,28.3342-14.2978,4.7705-2.297,9.6795-4.2978,14.5432-6.3954,2.429-1.0562,4.9302-1.9431,7.3921-2.9228,2.4802-.9335,4.9195-1.9749,7.4424-2.797,19.9734-7.0759,40.6777-12.4655,61.8315-14.6845a279.27527,279.27527,0,0,1,63.5516.2764,363.68714,363.68714,0,0,1,62.1616,12.9554,479.12936,479.12936,0,0,1,59.4143,22.246,595.94553,595.94553,0,0,1,56.3213,29.1042c18.2624,10.6365,36.0114,22.1292,53.2905,34.2745a875.41486,875.41486,0,0,1,97.8879,80.2619q22.9974,21.7743,44.3787,45.1818c3.5115,3.9441,7.0503,7.8593,10.5352,11.8303l5.1652,6.0207,5.0496,6.1178q9.9987,12.31725,19.1907,25.2613c24.3479,34.5661,44.0708,72.5754,56.7458,113.0042a324.73762,324.73762,0,0,1,12.9915,62.0802,278.65239,278.65239,0,0,1-.3045,63.4196l-1.0571,7.8754-1.3249,7.8243-.6687,3.9108c-.2393,1.3004-.5259,2.5915-.7867,3.8876l-1.601,7.7694-1.8318,7.7158-.9224,3.8562-1.0232,3.8294-2.0674,7.6529-2.2614,7.5951-1.1346,3.7963-1.2202,3.7683-2.4489,7.5335-2.6067,7.4776-1.305,3.7381-1.3728,3.7124-2.7483,7.4234-2.8623,7.3775c-1.8857,4.9276-3.9162,9.7942-5.8772,14.6897-16.0158,39.0155-34.1872,77.0751-48.4519,116.6563-3.5239,9.9015-6.9118,19.8561-9.8186,29.9516-1.5437,5.0227-2.8276,10.1154-4.1838,15.189-.6799,2.5364-1.218,5.107-1.834,7.6589-.5884,2.5583-1.2324,5.1051-1.7107,7.6864l-1.5456,7.7214c-.5113,2.5745-.8758,5.1748-1.3211,7.7611-.9377,5.1673-1.4885,10.3889-2.1741,15.5922a296.52534,296.52534,0,0,0-1.8291,31.4155c.0894,42.0638,4.3667,84.0482,9.3333,125.846,4.9817,41.8159,10.8157,83.5843,13.8291,125.6546,1.491,21.0271,2.3403,42.1197,1.9836,63.2124a527.02385,527.02385,0,0,1-4.7602,63.0701,439.7881,439.7881,0,0,1-13.0611,61.8788l-4.5131,15.1576-2.2522,7.5802c-.7488,2.5273-1.6704,4.9992-2.4971,7.5017l-5.0942,14.9713c-.8709,2.4874-1.6502,5.0081-2.596,7.4681l-2.8193,7.387c-14.805,39.4905-32.6673,77.7816-52.4683,114.991-19.8159,37.2137-41.5276,73.3878-64.3,108.8474-22.7679,35.4692-46.5066,70.2942-70.3975,104.9964-23.8936,34.688-47.6543,69.5378-73.7009,102.7283-12.9959,16.6072-26.6216,32.7398-41.0218,48.1715q-10.82655,11.5488-22.3139,22.4624c-7.6536,7.2719-15.5467,14.2995-23.7239,20.9871q-12.2487,10.05045-25.2471,19.1511-13.028,9.03375-26.8313,16.8831l-3.455,1.9454c-1.146.6587-2.305,1.2941-3.4847,1.8907l-7.0351,3.6612c-2.3255,1.26-4.7427,2.3348-7.1243,3.4814-2.3957,1.1168-4.761,2.3015-7.1821,3.3623-4.8704,2.0552-9.6719,4.2808-14.6321,6.1157-2.4661.9515-4.9216,1.9317-7.397,2.8589l-7.4861,2.615-3.7453,1.3015-3.7849,1.1802-7.5706,2.3599-7.6431,2.1096-3.822,1.054-3.851.9396-7.7076,1.8599c-2.5793.5742-5.1718,1.0881-7.7573,1.6353-5.1606,1.1511-10.3867,1.9543-15.5854,2.9048a461.18216,461.18216,0,0,1-63.0926,5.729c-42.269.8945-84.5241-3.4449-125.9782-11.4134q-31.09395-6.0165-61.628-14.532l-7.622-2.1384-7.5906-2.2461c-5.0742-1.4558-10.0781-3.1218-15.114-4.6935-5.022-1.6121-10.0735-3.138-15.0716-4.8211l-14.9817-5.0854c-2.4929-.8587-5.0019-1.6733-7.4814-2.5684l-7.4434-2.6736-14.8835-5.3544-14.8062-5.5549-7.403-2.7776-7.3723-2.8529-14.7414-5.7139-14.6979-5.8152-29.3477-11.7343c-39.084-15.7362-78.1121-31.5618-117.643-45.9876l-14.8708-5.2676-7.4353-2.6338-7.4754-2.5116-14.9597-4.9942c-4.9982-1.6273-10.0336-3.1332-15.0483-4.7058-10.0077-3.2251-20.158-5.9491-30.2597-8.8419-1.2651-.3531-2.5245-.7276-3.7942-1.0628l-3.8176-.9723-7.635-1.9447c-5.0909-1.2926-10.1689-2.638-15.3053-3.7423l-15.3672-3.4851-15.4491-3.1013-7.7292-1.5259-7.7642-1.3392c-5.1797-.8703-10.3434-1.839-15.535-2.6338-10.3961-1.5081-20.7753-3.1414-31.2205-4.2818-10.4172-1.3707-20.8884-2.2417-31.3448-3.2484a894.91414,894.91414,0,0,0-125.9431-1.5558l-7.8665.4391c-2.6228.1365-5.2369.4018-7.8558.5962l-15.7062,1.267-15.6705,1.6504c-2.6103.2888-5.2269.522-7.8317.8563l-7.8121,1.0201c-20.8548,2.5602-41.5741,6.1258-62.1853,10.1723l-15.4302,3.1889c-5.1289,1.1292-10.2348,2.3631-15.3532,3.5392l-7.6726,1.7869-7.6266,1.9745c-5.08,1.3318-10.1782,2.5972-15.2434,3.9833-10.0927,2.9082-20.2315,5.6622-30.2229,8.908l-7.5184,2.3512-3.7573,1.1814-3.7285,1.2696-14.914,5.0775a871.27222,871.27222,0,0,0-115.4536,50.2403c-9.3671,4.752-18.4539,10.0232-27.6519,15.0877l-13.5651,8.0036-6.7732,4.019-6.7161,4.1301c-17.8859,11.0624-35.6368,22.4895-54.0782,32.8894-18.4176,10.3911-37.618,19.77-57.99272,26.1765-20.3133,6.4207-41.9654,9.5105-63.3629,7.4844a152.28356,152.28356,0,0,1-60.8897-19.138c-18.6841-10.4729-35.2672-24.315-49.7059-39.9482a272.37053,272.37053,0,0,1-37.1391-51.7167,313.63527,313.63527,0,0,1-25.2605-58.3958c-.7688-2.5422-1.6147-5.0612-2.3194-7.6225l-2.124-7.6792-1.9102-7.7174-.9441-3.8612-.8438-3.8844-1.6799-7.7701-1.4649-7.8133-.729-3.9072-.62178-3.9255-1.24292-7.8513-1.0232-7.8825-.511-3.9413-.4057-3.9532-.8027-7.9076-.592-7.9258-.2907-3.9633-.1927-3.9689-.3629-7.9393-.1614-7.9453c-.05678-2.6485-.1077-5.2971-.0571-7.946l.0688-7.9465c.0512-2.6481.1762-5.2946.2609-7.9419.12362-5.2975.5542-10.5798.86-15.8681.8532-10.5583,1.8823-21.1096,3.4703-31.5857a451.08526,451.08526,0,0,1,13.4579-62.0661c.6879-2.5581,1.53842-5.0682,2.3086-7.602.8069-2.5223,1.53482-5.0704,2.407-7.5715,1.72182-5.0093,3.3696-10.0448,5.2741-14.989,3.6132-9.9606,7.7602-19.7178,12.0731-29.3926a431.04326,431.04326,0,0,1,30.4658-55.7316,513.07163,513.07163,0,0,1,38.0237-50.813c13.5557-16.2109,27.7076-31.8507,41.6526-47.614,13.9411-15.7633,27.71652-31.6439,40.4896-48.274a369.37725,369.37725,0,0,0,34.2678-52.5031l1.8443-3.4559.9223-1.7279.8551-1.767,3.3988-7.0805,1.6998-3.5402c.5539-1.1857,1.0585-2.3934,1.5902-3.589l3.1525-7.1905c1.0918-2.3804,1.9864-4.8405,2.9695-7.2648l2.8891-7.2975,2.6224-7.3944c.8746-2.4647,1.7764-4.9208,2.517-7.4287a295.40227,295.40227,0,0,0,13.11579-61.194c.6307-5.1875.86833-10.4062,1.2042-15.6177.1404-2.607.1336-5.2197.2082-7.8294l.0833-3.9159-.0673-3.9158a261.41592,261.41592,0,0,0-2.2317-31.2379,299.364,299.364,0,0,0-14.75329-60.8627l-2.671-7.3834-2.8814-7.3065c-.9352-2.4458-1.9821-4.8471-3.016-7.2536-1.051-2.399-2.0185-4.8342-3.1455-7.2006-4.2727-9.5702-9.0271-18.9236-13.9448-28.1873-4.9665-9.2412-10.25938-18.3083-15.693-27.2925q-8.2644-13.4094-17.03638-26.5106c-23.46352-34.8961-49.35442-68.1373-74.97252-101.5811-25.61048-33.4445-51.0844-67.1315-73.6154-102.8484q-8.4078-13.4124-16.2194-27.1924c-1.30068-2.2964-2.5404-4.6276-3.8135-6.9396l-1.8977-3.4748-1.8284-3.5126-3.6352-7.0361-3.4862-7.1125a429.96914,429.96914,0,0,1-23.2226-58.8989A456.41481,456.41481,0,0,1,701.012,617.5881a440.40059,440.40059,0,0,1-5.55412-63.037,433.04317,433.04317,0,0,1,3.7142-63.1532l1.0716-7.8407,1.2761-7.8099.6424-3.9039.7434-3.8861,1.487-7.7717,1.6943-7.729.84712-3.8643.94608-3.8411,1.8985-7.6806,2.0932-7.6295,1.0498-3.8137,1.1393-3.7878,2.29712-7.5699,2.47888-7.5119c.8222-2.5054,1.6532-5.0077,2.5715-7.4798l2.6814-7.4415c.9214-2.4701,1.9024-4.9179,2.8506-7.3778,1.85562-4.9367,3.9795-9.7652,5.9904-14.6388,4.2365-9.6547,8.6027-19.2587,13.4379-28.6302,2.3321-4.7291,4.8808-9.3452,7.36432-13.995,1.233-2.3299,2.58348-4.5949,3.86958-6.8954,1.3167-2.2832,2.5658-4.6057,3.9466-6.8514a525.75282,525.75282,0,0,1,35.3182-52.4245c6.33962-8.4234,13.08362-16.5305,19.8821-24.5831,6.9367-7.9343,13.94-15.8167,21.3022-23.3604A576.665,576.665,0,0,1,1047.2946,74.6604Zm.1782.4672A575.29372,575.29372,0,0,0,838.58588,213.5933c-7.3363,7.5495-14.3128,15.4363-21.2223,23.3736-6.7712,8.0556-13.4874,16.1644-19.79858,24.5879a524.84461,524.84461,0,0,0-35.14232,52.4062c-1.3733,2.2442-2.6149,4.5648-3.924,6.8462-1.2785,2.2987-2.6215,4.5618-3.8469,6.8896-2.4683,4.6457-5.00178,9.2573-7.3185,13.9813-4.8002,9.3634-9.1505,18.9489-13.3359,28.5985-1.98838,4.8694-4.0898,9.6932-5.9226,14.6243-.937,2.4571-1.9066,4.9019-2.8167,7.3689l-2.6473,7.4313c-.9069,2.4687-1.7266,4.9672-2.5374,7.4686l-2.4449,7.4995-2.263,7.5563-1.1223,3.7806-1.0328,3.8061-2.0592,7.6135-1.8648,7.6633-.9293,3.8321-.8303,3.8549-1.66078,7.7093-1.45392,7.7507-.7268,3.8752-.626,3.8927-1.2434,7.7866-1.0393,7.816a431.28831,431.28831,0,0,0-3.4721,62.9141,438.43176,438.43176,0,0,0,5.7556,62.7306,454.20447,454.20447,0,0,0,14.7797,61.2268,426.58432,426.58432,0,0,0,23.3086,58.4857l3.4952,7.0598,3.6443,6.9852,1.8325,3.4871,1.9024,3.4503c1.27622,2.2959,2.5185,4.6102,3.82222,6.8908q7.798,13.698,16.25708,27.0109c22.5848,35.4899,48.133,69.0032,73.8663,102.3319,25.7413,33.3312,51.80362,66.5139,75.5094,101.4679q8.88165,13.1082,17.2309,26.5809c5.5069,9.0159,10.8644,18.1293,15.8965,27.4307,4.9856,9.3243,9.8094,18.7461,14.1546,28.4011,1.1445,2.3861,2.131,4.8452,3.1999,7.2664,1.052,2.429,2.1168,4.8527,3.0706,7.3239l2.9359,7.3817,2.7257,7.4649a303.67227,303.67227,0,0,1,15.14319,61.693,265.8617,265.8617,0,0,1,2.3621,31.7471l.0795,3.9818-.0722,3.9819c-.06747,2.6539-.0542,5.3113-.1888,7.9625-.3249,5.2998-.5515,10.6084-1.1784,15.8834a300.03676,300.03676,0,0,1-13.20339,62.1718c-.7478,2.5459-1.6562,5.0366-2.53788,7.5366l-2.64522,7.5001-2.9122,7.3974c-.9911,2.4571-1.8947,4.9519-2.9942,7.3628L969.36688,1332c-.536,1.2111-1.0452,2.4347-1.6034,3.6354l-1.7122,3.5842-3.4251,7.1683-.8623,1.7896-.9336,1.7584-1.8677,3.5169a374.22967,374.22967,0,0,1-34.6168,53.2627c-12.8619,16.8106-26.68378,32.804-40.6411,48.5997-13.9555,15.8005-28.0639,31.4197-41.5226,47.5426a508.01443,508.01443,0,0,0-37.611,50.3403,425.917,425.917,0,0,0-30.0558,55.0895c-4.2535,9.5648-8.34528,19.2103-11.9075,29.0581-1.8789,4.8878-3.5023,9.8667-5.20078,14.8187-.86042,2.4726-1.57692,4.9921-2.37262,7.4857-.7589,2.5052-1.5986,4.9863-2.2759,7.5157a445.85194,445.85194,0,0,0-13.2511,61.3573c-1.5618,10.3551-2.5688,20.784-3.4043,31.2186-.2969,5.2263-.7197,10.4465-.8366,15.6813-.0814,2.6159-.2033,5.2311-.2517,7.8478l-.0612,7.8515c-.0484,2.6173.0045,5.234.0629,7.8507l.16552,7.8495.36528,7.8427.1933,3.9205.2896,3.9147.5834,7.8288.7922,7.8103.3998,3.9048.5046,3.8923,1.0091,7.785,1.2269,7.7531.6131,3.8766.7198,3.8579,1.4451,7.7151,1.658,7.6715.8321,3.8352.932,3.8118,1.8845,7.6187,2.0867,7.5474c.69152,2.5168,1.5241,4.9928,2.2787,7.4914a308.31393,308.31393,0,0,0,24.8227,57.4044A267.06153,267.06153,0,0,0,814.22,2023.0165c14.11558,15.2878,30.27718,28.7628,48.38048,38.9127a146.94722,146.94722,0,0,0,58.77,18.4917c20.6066,1.946,41.50652-.9895,61.3158-7.2249,19.863-6.2219,38.75922-15.4082,57.00822-25.6827,18.274-10.28,35.9791-21.649,53.9296-32.728l6.7458-4.1389,6.8174-4.0364,13.6561-8.0385c9.2583-5.0868,18.4059-10.3791,27.8331-15.1506a876.2798,876.2798,0,0,1,116.1707-50.4141l15.0023-5.0908,3.7506-1.2726,3.7792-1.1844,7.5624-2.3567c10.0501-3.2532,20.247-6.0132,30.398-8.9263,5.0944-1.3885,10.2215-2.6561,15.3305-3.9898l7.6699-1.9771,7.7159-1.7892c5.1472-1.1776,10.2819-2.4126,15.4395-3.5425l15.5162-3.1906c20.7256-4.0479,41.5584-7.6105,62.5257-10.1636l7.8544-1.0173c2.6188-.3334,5.2494-.5656,7.8737-.8532l15.7544-1.6431,15.7899-1.2579c2.6327-.1929,5.2606-.4565,7.8974-.5912l7.908-.4337c84.3202-4.793,169.4005,2.1209,251.6289,21.5719,5.1609,1.1195,10.2635,2.4806,15.3787,3.7888l7.6713,1.9685,3.8355.9843c1.2754.3391,2.5398.7175,3.8103,1.0743,10.1435,2.9235,20.3384,5.6798,30.3786,8.9344,5.032,1.5876,10.0862,3.1092,15.0996,4.7513l15.0026,5.0377,7.4959,2.5333,7.4519,2.6543,14.9037,5.3089c39.6034,14.5312,78.6474,30.4442,117.6934,46.2446l29.3092,11.7788,14.6731,5.8352,14.7101,5.7315,7.3564,2.8617,7.3838,2.7851,14.7678,5.5703,14.8386,5.3675,7.4204,2.6804c2.4725.8974,4.9717,1.7135,7.4563,2.5742l14.9268,5.1063c4.979,1.6917,10.0081,3.2251,15.0098,4.8455,5.0139,1.5796,10.0009,3.255,15.0478,4.7173l7.5528,2.2568,7.5837,2.1497q30.33765,8.589,61.3123,14.6306c41.2363,8.041,83.2551,12.466,125.2651,11.6889a458.18352,458.18352,0,0,0,62.6897-5.5229c5.1636-.9307,10.3562-1.7134,15.4814-2.843,2.5679-.5362,5.1436-1.0396,7.7056-1.6026l7.655-1.8259,3.8252-.9224,3.7959-1.0358,7.5916-2.0733,7.5185-2.322,3.7593-1.1609,3.7195-1.2817,7.4346-2.5777c2.458-.914,4.8962-1.8816,7.3454-2.8196,4.9265-1.8088,9.6939-4.0065,14.5313-6.0338,2.4045-1.0467,4.7531-2.217,7.1328-3.3193,2.3655-1.1321,4.7666-2.1924,7.0759-3.4375l6.9878-3.6159c1.1721-.5891,2.3232-1.2167,3.4619-1.8679l3.4326-1.9223q13.6923-7.7553,26.6748-16.6984,12.9324-8.98125,25.1307-18.9716c8.1445-6.6294,16.0117-13.601,23.645-20.8199q11.45535-10.823,22.2673-22.3123c14.3796-15.3383,28.0015-31.3894,41.0061-47.9287,26.0608-33.0549,49.8936-67.8148,73.8555-102.4569,23.917-34.6772,47.6741-69.4652,70.4543-104.8876,22.7849-35.4125,44.503-71.5285,64.3233-108.6741,19.8054-37.1413,37.6696-75.3536,52.4799-114.7559l2.8206-7.3706c.946-2.4547,1.7256-4.9694,2.5967-7.4511l5.0969-14.9371c.8272-2.4967,1.7493-4.9633,2.4985-7.4846l2.2537-7.5621,4.499-15.1272a438.20333,438.20333,0,0,0,12.9817-61.6834,525.42526,525.42526,0,0,0,4.708-62.8823c.3433-21.0362-.5168-42.0808-2.0176-63.0706-1.4941-20.9947-3.7607-41.9315-6.2519-62.8404l-7.7588-62.7145c-5.052-41.823-9.3794-83.8362-9.5898-126.0716a298.728,298.728,0,0,1,1.7509-31.6424c.6744-5.2402,1.2154-10.5007,2.1436-15.7039.4404-2.6043.8003-5.2238,1.3071-7.816l1.533-7.7745c.4743-2.5996,1.1142-5.1626,1.6987-7.738.6121-2.5686,1.1467-5.1572,1.8228-7.7095,1.3486-5.1054,2.6259-10.2316,4.1623-15.2834,2.8933-10.1572,6.2671-20.1649,9.7764-30.1158,14.2073-39.7745,32.29-77.9254,48.1523-116.8928,1.9414-4.8869,3.9532-9.7481,5.8177-14.6629l2.831-7.3596,2.7156-7.4002,1.3562-3.7006,1.2878-3.7235,2.5723-7.448,2.4136-7.4982,1.2026-3.7501,1.1162-3.7757,2.2254-7.5527,2.0307-7.6049,1.0051-3.8048.9041-3.8291,1.7954-7.6604,1.5654-7.7085c.2549-1.2858.5359-2.5669.7693-3.8565l.6519-3.8774,1.2912-7.7557,1.023-7.7856a275.453,275.453,0,0,0,.1255-62.69,321.34064,321.34064,0,0,0-13.0264-61.3906c-12.6601-39.9923-32.3113-77.6182-56.5498-111.8257q-9.13665-12.80775-19.0994-24.9961l-5.0236-6.0524-5.1385-5.9556c-3.4729-3.9352-7.008-7.8245-10.5107-11.7371q-21.29925-23.2326-44.2651-44.8703a871.17594,871.17594,0,0,0-97.5315-79.7235q-25.79925-18.08955-53.0164-34.0051a591.50243,591.50243,0,0,0-55.9185-28.8751,474.66745,474.66745,0,0,0-58.8635-22.0203,359.20355,359.20355,0,0,0-61.3962-12.7791,277.18585,277.18585,0,0,0-62.5369-.307c-20.7798,2.1553-41.1445,7.4333-60.8533,14.3909-2.4877.8066-4.8981,1.8344-7.3469,2.7529-2.4316.9651-4.8996,1.8359-7.3015,2.878-4.8088,2.0691-9.6599,4.0386-14.384,6.3083-9.5469,4.314-18.8372,9.194-28.0865,14.1371-18.3979,10.0978-36.2929,21.1362-53.957,32.5607-35.3508,22.7977-69.9822,46.994-106.9709,67.5086-18.4898,10.2199-37.5237,19.5921-57.3667,27.0294-2.4837.9177-4.9451,1.8951-7.4468,2.7632l-7.5361,2.5192c-1.2583.4125-2.5069.8561-3.774,1.2408l-3.8142,1.1144c-2.5466.728-5.0764,1.5183-7.6369,2.1946-5.139,1.2851-10.253,2.6748-15.449,3.7113l-3.8828.8372-1.9419.4163-1.9546.3509-7.8184,1.4028c-2.6059.4671-5.2363.7822-7.853,1.1805l-3.9299.5677c-1.3096.1916-2.6292.3044-3.9431.4603l-7.8919.8742-7.9143.6214c-1.3193.0952-2.637.2238-3.958.2916l-3.9641.1854c-2.6433.1075-5.2844.2831-7.9292.3341-5.2896.0822-10.5789.2239-15.8674.0886-5.2906-.0043-10.5721-.2938-15.8556-.5031-2.6404-.1295-5.2754-.3501-7.9132-.5209l-3.9556-.2739-3.9474-.3676-7.8921-.7603-7.8694-.9583c-2.6263-.2946-5.2403-.6786-7.8532-1.0703-2.6121-.3953-5.232-.742-7.8373-1.1775-41.7484-6.7592-82.4362-18.8948-121.7815-34.0952q-29.4927-11.492-58.0653-25.1416c-4.7798-2.2294-9.4809-4.6131-14.2134-6.9346l-7.0896-3.5005q-3.5535-1.73295-7.0607-3.5559l-14.0608-7.2289c-4.6934-2.3971-9.3203-4.9183-13.9836-7.3713-37.2461-19.7422-73.8335-40.6436-110.8574-60.7219-9.2782-4.9762-18.5226-10.0185-27.8716-14.8579-4.6732-2.4217-9.3027-4.9309-14.0121-7.281l-14.0911-7.1248c-4.6855-2.399-9.4615-4.6114-14.1879-6.9264-4.742-2.2827-9.4577-4.6224-14.2635-6.7674l-14.3563-6.5683c-4.8081-2.1379-9.667-4.1596-14.4982-6.2452l-7.2567-3.106-7.3347-2.9143-14.686-5.7893-14.8557-5.3364c-2.4834-.8676-4.9358-1.828-7.4448-2.6193l-7.5262-2.3756-15.0553-4.7458c-1.2588-.3809-2.5004-.8217-3.7736-1.1535l-3.8129-1.0173-7.6263-2.0348-15.2546-4.0627-15.4166-3.3988a658.13665,658.13665,0,0,0-372.7627,27.2989Z"/></g><path id="b189d0b4-4437-4672-9efd-0cd46d4a8f88" data-name="shape" class="e08b28e5-286e-4271-844f-11f925b62033" d="M698.71428,77.533c-31.131,13.9921-133.42549,59.9697-160.18228,160.2851-27.28791,102.3064,39.03139,197.7234,68.552,232.8482,54.06408,64.3274,125.55168,111.0319,193.20728,160.8684,67.6556,49.8364,134.2679,105.9292,171.939,181.0415,57.80722,115.261,37.26062,254.6196-5.5109,376.2641-42.7716,121.6443-106.33138,236.4619-133.8328,362.4395-27.5014,125.978-10.9901,272.7012,84.545,359.3027,70.3271,63.751,170.09612,83.4488,264.95052,87.0181,250.8478,9.4399,494.2042-74.8545,738.2368-133.6919,244.0325-58.8374,511.2707-90.4771,737.9614,17.3428,73.9922,35.1923,155.3911,85.7231,231.4475,55.2465,48.7891-19.5498,80.2454-69.874,89.49-121.6147,9.2449-51.7407-.5036-104.9707-14.0066-155.7666-31.0639-116.8589-81.8669-227.6519-114.6587-344.0378-32.7915-116.386-46.6572-243.5064-3.5847-356.4922,34.4453-90.3548,101.9751-163.5694,169.2713-233.0076,67.2963-69.4382,137.2465-139.4031,178.5913-226.8164,41.3445-87.4131,48.7983-197.7454-7.3543-276.4685-52.5422-73.6614-149.6196-104.312-240.0451-101.1633-90.4253,3.1486-177.0528,34.7441-262.9327,63.2277-283.958,94.18-822.7764,229.1687-1214.8812,68.7229-125.9126-51.5224-229.7059-126.9724-453.1609-180.8086C893.28358,42.5251,795.01248,34.2505,698.71428,77.533Z"/></g></svg>