<svg xmlns="http://www.w3.org/2000/svg" xmlns:xlink="http://www.w3.org/1999/xlink" viewBox="0 0 2756 1550"><defs><style>.a5a3093b-e6e0-4e1a-8886-eb4b297ff32e,.ff738e46-9f74-43f0-a079-6f951c2e22d6{fill:none;}.e4515d99-dca6-44b3-a16c-c65be7694a50{isolation:isolate;}.b8972b60-6cde-47d4-8f98-232d712ae677{fill:url(#a7d05d49-0d0b-4f70-93ff-0590f4414f68);}.b5d15e61-b493-46ee-b016-b960301d32a2{clip-path:url(#f6ba649a-0490-44bd-802e-9b50a60bb103);}.fbcd19c3-eb21-45ee-a58f-59d515c53fc6{mix-blend-mode:color-burn;}.bc513b8a-3d39-42ca-b34c-3ceb75e3509b{fill:#fff;}.bdabb44c-05b4-4a8a-9092-22e8f1fb9f55{fill:#fefefe;}.e97febbf-7d9e-42de-97fd-accf4adeff2e{fill:#fdfdfd;}.b858ef8a-28fc-457e-8224-117d4e4f55d1{fill:#fcfcfc;}.b29f3126-f834-4576-a1ea-b7289f94bd20{fill:#fbfbfb;}.b4fd0aea-ff50-4474-bf2d-78b9b824ee9a{fill:#fafafa;}.b6e432cb-6c7b-4d97-97d2-f6baa263ceeb{fill:#f9f9f9;}.ab60204d-94ea-4c90-a91a-952a09195c2f{fill:#f8f8f8;}.b3ac319c-c1b2-438e-8e5d-f1c1e9d119b9{fill:#f7f7f7;}.aa0712ee-424f-42c7-bf15-2969930bd109{fill:#f6f6f6;}.b90acd0a-047a-48e8-874c-d17bb741f9af{fill:#f5f5f5;}.fa5efc23-7f0a-4a30-81f8-04f0682f47f3{fill:#f4f4f4;}.fb090df3-69aa-4e38-9c94-49ca159a8e69{fill:#f3f3f3;}.b00c1718-51e4-4590-b5a8-c506ed1e19b8{fill:#f2f2f2;}.afedbf9e-2044-4013-8f43-ede105634976{fill:url(#a575ae8b-b38b-4089-ac35-292ed9daeaee);}.afd1f986-74cd-465a-b387-332ab2b212f3{fill:url(#f349baf8-1312-4cbb-bf0e-55a2bc9177a0);}.a4250ec2-641f-493e-9c49-5483fa4af255{fill:#efefef;}.bbd3df99-0168-4ba3-b061-c959e70408a2{fill:#ebebeb;}.a9e06118-25ce-4454-b600-1b337e7413fa{fill:#e8e8e8;}.a240ae4c-6cc9-4fd7-ab2d-d6d1a43d0824{fill:#e4e4e4;}.fb9f54ca-aed3-481d-806d-f3eef6b5af59{fill:#e0e0e0;}.b1c224b5-2391-433b-bb7e-5135d0aea000{fill:#dcdcdc;}.ac12eb71-b3ab-4909-902f-1b8a1ee1ad4b{fill:#d8d8d8;}.bd0f78b8-7cb7-4267-907a-06d2d5d53c93{fill:#d4d4d4;}.bd92fada-53e7-420f-a054-7bde503b425a{fill:#d0d0d0;}.f2ff3eeb-1a67-403b-af61-6023ab96a509{fill:#ccc;}.aa131788-bee2-4222-9b2e-1c1e43933eec{fill:#c8c8c8;}.b65b0181-51cf-4040-9331-587da5878eeb{fill:#c4c4c4;}.f6163c1e-556a-4906-ac90-c03d694dcad6{fill:#c1c1c1;}.ffc745d5-6782-4380-9bd3-9c1bc2ef606a{fill:#bdbdbd;}.a678075f-c5b5-4cca-b0ff-aac64a0f723c{fill:#b9b9b9;}.a127b03c-f46f-417e-8662-950457f6fe0d{fill:#b5b5b5;}.f64990e1-7a4f-4286-8506-b6c3bb7a447f{fill:#b1b1b1;}.a54a2058-ccef-4256-8c22-ad2b0d84b949{fill:#adadad;}.f494b4d9-b7b0-4dca-af39-8bb7ac3ace6d{fill:url(#a43dc516-0ea1-474a-bc85-8ff39a134c1a);}.b346b0d9-018c-4297-879a-8944aabd7e4c{fill:url(#b2136127-6897-4b75-80de-cd051b320eaf);}.a5a3093b-e6e0-4e1a-8886-eb4b297ff32e{stroke:#d4d9ff;stroke-miterlimit:10;stroke-width:2px;}.a2bc4253-f15e-4cfa-9a85-703347819f18{fill:#d4d9ff;}</style><linearGradient id="a7d05d49-0d0b-4f70-93ff-0590f4414f68" x1="-57.16353" y1="-116.12962" x2="2941.12366" y2="1745.58333" gradientUnits="userSpaceOnUse"><stop offset="0.10688" stop-color="#281a8e"/><stop offset="0.31833" stop-color="#22198b"/><stop offset="0.97218" stop-color="#121882"/></linearGradient><clipPath id="f6ba649a-0490-44bd-802e-9b50a60bb103"><rect class="ff738e46-9f74-43f0-a079-6f951c2e22d6" width="2756" height="1550"/></clipPath><linearGradient id="a575ae8b-b38b-4089-ac35-292ed9daeaee" x1="1515.27302" y1="-529.15409" x2="3135.27342" y2="478.84648" gradientUnits="userSpaceOnUse"><stop offset="0" stop-color="#0a67ed"/><stop offset="0.99721" stop-color="#2ba8fc"/></linearGradient><linearGradient id="f349baf8-1312-4cbb-bf0e-55a2bc9177a0" x1="-316.50917" y1="955.75595" x2="1154.32389" y2="1953.45407" gradientTransform="translate(86.13079 -27.3867) rotate(3.54881)" xlink:href="#a575ae8b-b38b-4089-ac35-292ed9daeaee"/><linearGradient id="a43dc516-0ea1-474a-bc85-8ff39a134c1a" x1="-497.83854" y1="1127.45671" x2="972.99705" y2="2125.15655" gradientTransform="translate(398.1858 -84.2214) rotate(16.48686)" gradientUnits="userSpaceOnUse"><stop offset="0" stop-color="#f9f910"/><stop offset="0.99721" stop-color="#eae024"/></linearGradient><linearGradient id="b2136127-6897-4b75-80de-cd051b320eaf" x1="1826.83733" y1="-579.95017" x2="3446.81465" y2="428.03604" gradientTransform="translate(83.4943 -539.2566) rotate(11.93469)" xlink:href="#a43dc516-0ea1-474a-bc85-8ff39a134c1a"/></defs><g class="e4515d99-dca6-44b3-a16c-c65be7694a50"><g id="a7ecdda9-100a-451f-89ff-4c313998eeaf" data-name="Background"><rect class="b8972b60-6cde-47d4-8f98-232d712ae677" width="2756" height="1550"/></g><g id="a6370517-6999-4d79-b71e-60c6c0a7d05d" data-name="Object"><g class="b5d15e61-b493-46ee-b016-b960301d32a2"><g class="fbcd19c3-eb21-45ee-a58f-59d515c53fc6"><path class="bc513b8a-3d39-42ca-b34c-3ceb75e3509b" d="M2827.1211,859.2197c-88.6904,0-167.6699-12.6621-234.7432-37.6347-59.6318-22.2032-111.3027-54.5772-153.5761-96.2246-83.0625-81.8301-107.7383-176.3355-127.5645-252.2725-19.7187-75.5215-32.04-116.3994-75.6738-147.936-27.2217-19.6763-54.9375-27.3418-98.8487-27.3418-26.9707,0-56.9209,2.8066-91.5996,6.0566-42.7959,4.0103-91.3027,8.5562-145.4707,8.5576-24.5166.0005-47.8535-.9053-71.3437-2.769-111.0537-8.8101-222.0654-39.9229-329.9522-92.4732-135.0747-65.7934-269.1274-166.9726-398.434-300.726L919.65768-270H3238V796.0791l-84.7549,19.9854C3031.7979,844.7002,2922.0742,859.2197,2827.1211,859.2197Z"/><path class="bdabb44c-05b4-4a8a-9092-22e8f1fb9f55" d="M932.00728-264.76189H3232.7619V791.9325c-1.1731.2766-83.0216,19.5537-84.1095,19.766-120.9256,28.2988-229.7099,42.4252-323.6468,42.2242-88.4282-.2271-166.6114-13.1509-232.7411-38.1058a444.948,444.948,0,0,1-96.1239-50.1025,402.51448,402.51448,0,0,1-55.504-46.3307c-81.3317-81.326-105.2225-175.1625-125.2944-250.9749-19.4867-73.9997-32.2105-114.8855-75.5905-146.5917a137.44624,137.44624,0,0,0-31.2954-17.3933c-18.5155-7.2734-39.4079-10.4833-66.327-10.8921-26.8407-.4076-56.5352,1.9252-90.7744,4.8972-42.576,3.6344-90.681,8.0967-144.3389,8.2861-24.2596.0832-47.427-.686-70.7776-2.3793a880.684,880.684,0,0,1-184.0526-33.6532,978.26725,978.26725,0,0,1-143.8162-55.3402C1374.6418,151.3776,1241.0297,52.3487,1111.3117-80.228,1108.8517-82.1725,934.63078-262.04829,932.00728-264.76189Z"/><path class="bdabb44c-05b4-4a8a-9092-22e8f1fb9f55" d="M944.357-259.52379H3227.5238V787.7859c-2.3461.5532-81.2883,19.122-83.4641,19.5466-120.404,27.962-228.249,41.6952-321.1695,41.2932-88.166-.4543-165.553-13.6398-230.7391-38.5768a438.72,438.72,0,0,1-95.0175-50.2703,397.36245,397.36245,0,0,1-54.6622-46.3716c-79.6009-80.822-102.7067-173.9894-123.0243-249.6773-19.2546-72.4779-32.3809-113.3716-75.5073-145.2473a140.02262,140.02262,0,0,0-30.9063-17.4797c-18.4115-7.5038-39.0863-10.9387-65.4898-11.7493-26.7129-.8201-56.1495,1.0436-89.9492,3.7376-42.356,3.2587-90.0591,7.6374-143.207,8.0148-24.0027.1658-47.0004-.4669-70.2116-1.9898a886.27748,886.27748,0,0,1-182.7494-31.8676,973.48469,973.48469,0,0,1-143.0359-53.6459c-132.381-62.1359-265.5524-159.0146-395.6818-290.4145C1117.7889-80.801,949.60378-254.09649,944.357-259.52379Z"/><path class="e97febbf-7d9e-42de-97fd-accf4adeff2e" d="M956.70658-254.28569H3222.2857V783.6392c-3.5192.8298-79.555,18.6904-82.8187,19.3273-119.8823,27.6251-226.788,40.9651-318.6923,40.3622-87.9038-.6814-164.4944-14.1286-228.737-39.0478a432.39131,432.39131,0,0,1-93.9112-50.438,392.13553,392.13553,0,0,1-53.8202-46.4126c-77.8702-80.3179-100.191-172.8164-120.7543-248.3797-19.0226-70.956-32.5514-111.8577-75.424-143.9029a144.11434,144.11434,0,0,0-30.5173-17.5662c-18.3254-7.6919-38.7665-11.4013-64.6526-12.6065-26.5874-1.2378-55.7638.1622-89.124,2.5782-42.136,2.8828-89.4373,7.178-142.0752,7.7433-23.7456.2486-46.5738-.2476-69.6454-1.6001a891.91228,891.91228,0,0,1-181.4463-30.0821,954.53594,954.53594,0,0,1-142.2556-51.9516C1397.247,151.6398,1264.6468,56.6271,1134.106-73.596,1126.7261-79.4295,964.57688-246.14479,956.70658-254.28569Z"/><path class="e97febbf-7d9e-42de-97fd-accf4adeff2e" d="M969.05618-249.04759H3217.0476V779.4926c-4.6922,1.1064-77.8218,18.2587-82.1733,19.1079-119.3607,27.2882-225.3271,40.2351-316.215,39.4312-87.6416-.9085-163.436-14.6174-226.735-39.5188a425.95678,425.95678,0,0,1-92.8048-50.6057,386.8126,386.8126,0,0,1-52.9784-46.4535c-76.1394-79.8139-97.8584-171.5931-118.4842-247.0822-18.959-69.3884-32.7219-110.3438-75.3407-142.5585a147.53787,147.53787,0,0,0-30.1284-17.6527c-18.2267-7.9112-38.4481-11.8712-63.8153-13.4636-26.4638-1.6613-55.3727-.6351-88.2987,1.4187-41.9096,2.6142-88.8155,6.7186-140.9434,7.4718-23.4887.3313-46.1473-.0284-69.0793-1.2104a886.93758,886.93758,0,0,1-180.1431-28.2966,931.37227,931.37227,0,0,1-141.4753-50.2573C1408.583,151.7057,1276.4553,58.7663,1145.5031-70.28,1135.6632-78.0581,979.54988-238.19309,969.05618-249.04759Z"/><path class="b858ef8a-28fc-457e-8224-117d4e4f55d1" d="M981.40588-243.80949H3211.8095V775.346c-5.8653,1.383-76.0885,17.8271-81.5279,18.8885-118.839,26.9513-223.8661,39.5051-313.7378,38.5001-87.3794-1.1356-162.3774-15.1062-224.7329-39.9897a419.41579,419.41579,0,0,1-91.6984-50.7734,381.4011,381.4011,0,0,1-52.1366-46.4945c-74.4085-79.3098-95.3795-170.4092-116.2141-245.7846-18.7567-67.8579-32.8237-108.9199-75.2574-141.2141a149.7716,149.7716,0,0,0-29.7394-17.7392c-18.1278-8.132-38.131-12.3487-62.9781-14.3208-26.3419-2.0906-54.9868-1.5011-87.4735.2593-41.6894,2.259-88.1937,6.2592-139.8116,7.2003-23.2316.414-45.7207.1908-68.5132-.8207a890.18577,890.18577,0,0,1-178.8399-26.5112,919.05143,919.05143,0,0,1-140.695-48.5629c-128.529-56.2209-260.1899-147.0775-391.5534-274.9471C1144.6004-76.6866,994.523-230.24129,981.40588-243.80949Z"/><path class="b29f3126-f834-4576-a1ea-b7289f94bd20" d="M993.75547-238.57139H3206.5714V771.1994c-7.0383,1.6596-74.3552,17.3954-80.8825,18.6691-118.3174,26.6145-222.4051,38.775-311.2605,37.5691-87.1172-1.3627-161.3759-15.4549-222.7309-40.4607a405.69537,405.69537,0,0,1-90.5921-50.9411,371.4955,371.4955,0,0,1-51.2947-46.5355c-72.6777-78.8057-92.8965-169.2261-113.944-244.487-18.5495-66.3286-32.984-107.4181-75.1742-139.8697a153.36438,153.36438,0,0,0-29.3503-17.8257c-18.0285-8.3544-37.8149-12.8339-62.1409-15.1779-26.2213-2.5266-54.6013-2.3695-86.6483-.9003-41.4697,1.9014-87.5718,5.7998-138.6797,6.929-22.9747.4966-45.2942.41-67.9471-.4312a893.54642,893.54642,0,0,1-177.5368-24.7256,906.94044,906.94044,0,0,1-139.9147-46.8686C1431.2719,151.8091,1300.0723,63.0448,1168.2974-63.648,1153.5376-75.3151,1009.4961-222.28959,993.75547-238.57139Z"/><path class="b29f3126-f834-4576-a1ea-b7289f94bd20" d="M1006.1051-233.33329H3201.3333V767.0527c-8.2114,1.9362-72.6219,16.9638-80.2371,18.4498-117.7958,26.2776-220.9442,38.045-308.7833,36.6381-86.8549-1.5899-160.3235-15.931-220.7288-40.9318a398.39133,398.39133,0,0,1-89.4857-51.1087,369.39281,369.39281,0,0,1-50.4528-46.5764c-70.7889-78.4447-90.4093-168.0442-111.674-243.1895-18.3373-64.8005-33.1458-105.9143-75.0909-138.5253a157.22486,157.22486,0,0,0-28.9613-17.9122c-17.9287-8.5783-37.4994-13.327-61.3036-16.035-26.1018-2.9695-54.2161-3.2403-85.8232-2.0598-41.2505,1.5408-86.95,5.3404-137.5478,6.6575-22.7177.5793-44.8691.6763-67.381-.0415a888.04882,888.04882,0,0,1-176.2337-22.9401,895.03657,895.03657,0,0,1-139.1344-45.1743C1442.6245,151.8461,1311.8809,65.184,1179.6946-60.332,1162.4748-73.9437,1024.4691-214.33789,1006.1051-233.33329Z"/><path class="b4fd0aea-ff50-4474-bf2d-78b9b824ee9a" d="M1018.4548-228.09519H3196.0952V762.9061c-9.3844,2.2128-70.8886,16.5321-79.5917,18.2304-117.2741,25.9407-219.4832,37.315-306.306,35.7071-86.5928-1.817-159.2701-16.4101-218.7269-41.4028a391.17134,391.17134,0,0,1-88.3792-51.2765,363.66843,363.66843,0,0,1-49.611-46.6173c-69.0453-77.9493-87.9175-166.8632-109.4039-241.8919-18.1201-63.2737-33.3091-104.4082-75.0076-137.1809a161.36918,161.36918,0,0,0-28.5723-17.9987c-17.8283-8.8039-37.1842-13.8279-60.4664-16.8922-25.9828-3.4197-53.8312-4.1135-84.9979-3.2192-41.0317,1.1773-86.3283,4.881-136.4161,6.386-22.4607.662-44.4422.8991-66.8149.3482-56.6084-1.3938-114.8736-7.617-174.9305-21.1546a883.35575,883.35575,0,0,1-138.3541-43.48c-124.5343-50.5909-254.8273-135.1405-387.425-259.4797C1171.4119-72.5722,1039.4422-206.38609,1018.4548-228.09519Z"/><path class="b6e432cb-6c7b-4d97-97d2-f6baa263ceeb" d="M1030.8044-222.85709H3190.8571V758.7595c-10.5575,2.4894-69.1553,16.1005-78.9463,18.011-116.7525,25.6039-218.0223,36.585-303.8288,34.7761-86.3305-2.0442-158.2154-16.8923-216.7248-41.8738a384.02905,384.02905,0,0,1-87.2728-51.4442,357.90166,357.90166,0,0,1-48.7692-46.6583c-67.3046-77.451-85.4207-165.6835-107.1338-240.5943-17.898-61.7481-33.474-102.8999-74.9243-135.8366a165.83651,165.83651,0,0,0-28.1833-18.0851c-17.7273-9.031-36.8689-14.3369-59.6292-17.7493-25.8639-3.8777-53.4465-4.9891-84.1727-4.3787-40.8131.8108-85.7064,4.4216-135.2842,6.1145-22.2037.7448-44.0153,1.1209-66.2488.7379-55.9361-.9637-113.7339-6.4884-173.6274-19.3692a871.88077,871.88077,0,0,1-137.5738-41.7856C1465.3454,151.8891,1335.4979,69.4624,1202.4889-53.7,1180.3491-71.2008,1054.4152-198.43439,1030.8044-222.85709Z"/><path class="b6e432cb-6c7b-4d97-97d2-f6baa263ceeb" d="M1043.154-217.619H3185.619V754.6129c-11.7305,2.766-67.4221,15.6688-78.3009,17.7917-116.2308,25.2669-216.5613,35.8548-301.3515,33.845-86.0684-2.2713-157.1596-17.3777-214.7228-42.3448a376.97585,376.97585,0,0,1-86.1665-51.6119,352.08611,352.08611,0,0,1-47.9272-46.6992c-65.567-76.9498-82.9187-164.5053-104.8639-239.2968-17.6707-60.224-33.6405-101.3894-74.8409-134.4922a170.64826,170.64826,0,0,0-27.7943-18.1716c-17.6255-9.2597-36.5532-14.854-58.792-18.6065-25.7447-4.344-53.062-5.8672-83.3475-5.5382-40.5947.4412-85.0846,3.9623-134.1524,5.8431-21.9467.8275-43.5883,1.3418-65.6826,1.1275-55.2637-.5359-112.593-5.364-172.3243-17.5836a860.63622,860.63622,0,0,1-136.7935-40.0913C1476.7133,151.8945,1347.3064,71.6017,1213.886-50.384,1189.2863-69.8293,1069.3883-190.4826,1043.154-217.619Z"/><path class="ab60204d-94ea-4c90-a91a-952a09195c2f" d="M1055.5037-212.381H3180.381V750.4662c-12.9037,3.0426-65.6889,15.2372-77.6556,17.5724-115.7092,24.93-215.1004,35.1248-298.8743,32.9139-85.8061-2.4983-156.1024-17.8661-212.7207-42.8157a369.99387,369.99387,0,0,1-85.0601-51.7796,346.21779,346.21779,0,0,1-47.0854-46.7402c-63.8327-76.4455-80.411-163.3286-102.5938-237.9993-17.4386-58.7011-33.8089-99.8764-74.7577-133.1477a175.82485,175.82485,0,0,0-27.4053-18.2581c-17.5229-9.4901-36.2365-15.3791-57.9547-19.4636-25.6246-4.8192-52.6775-6.748-82.5222-6.6977-40.3766.0681-84.4628,3.5028-133.0206,5.5717-21.6897.9101-43.1614,1.5616-65.1166,1.5171-54.5911-.1106-111.451-4.2443-171.0211-15.7981a849.62328,849.62328,0,0,1-136.0132-38.3971C1488.0858,151.8888,1359.115,73.7409,1225.2832-47.0681,1198.2235-68.4578,1084.3613-182.5309,1055.5037-212.381Z"/><path class="ab60204d-94ea-4c90-a91a-952a09195c2f" d="M1067.8533-207.14289H3175.1429V746.3196c-14.0768,3.3192-63.9556,14.8055-77.0102,17.353-115.1875,24.5931-213.6394,34.3948-296.397,31.9829-85.544-2.7255-155.044-18.3577-210.7187-43.2868a363.10654,363.10654,0,0,1-83.9537-51.9472,340.30968,340.30968,0,0,1-46.2436-46.7812c-62.1017-75.9382-77.8972-162.1536-100.3237-236.7017-17.2015-57.1798-33.9793-98.3612-74.6744-131.8033a181.44538,181.44538,0,0,0-27.0163-18.3446c-17.4194-9.722-35.9186-15.9123-57.1175-20.3208-25.503-5.3035-52.2931-7.6313-81.697-7.8571-40.1584-.3084-83.841,3.0434-131.8887,5.3002-21.4328.9928-42.7344,1.7805-64.5505,1.9068-53.9186.3121-110.3081-3.1293-169.718-14.0127a838.85562,838.85562,0,0,1-135.2329-36.7027c-119.138-43.2327-247.6772-119.2243-381.9204-238.8565C1207.1606-67.0864,1099.3344-174.5792,1067.8533-207.14289Z"/><path class="b3ac319c-c1b2-438e-8e5d-f1c1e9d119b9" d="M1080.2029-201.90479H3169.9048V742.173c-15.2498,3.5958-62.2223,14.3738-76.3648,17.1336-114.6659,24.2563-212.1785,33.6647-293.9198,31.0519-85.2817-2.9526-153.9839-18.8526-208.7166-43.7578a356.3046,356.3046,0,0,1-82.8474-52.115,334.34664,334.34664,0,0,1-45.4016-46.8221c-60.3746-75.4279-75.3771-160.9806-98.0537-235.4041-16.9594-55.6599-34.1517-96.8435-74.5911-130.4589a187.52534,187.52534,0,0,0-26.6273-18.4311c-17.315-9.9555-35.5989-16.4534-56.2802-21.1779-25.3793-5.7977-51.9088-8.5173-80.8719-9.0166-39.9401-.6886-83.2192,2.584-130.7569,5.0287-21.1757,1.0755-42.3074,1.9984-63.9843,2.2965-53.2461.7322-109.1644-2.0192-168.4149-12.2272a828.36179,828.36179,0,0,1-134.4526-35.0084C1510.8438,151.8429,1382.732,78.0193,1248.0775-40.4361,1216.0978-65.7149,1114.3074-166.6274,1080.2029-201.90479Z"/><path class="aa0712ee-424f-42c7-bf15-2969930bd109" d="M1092.5526-196.6667H3164.6667V738.0264c-16.4229,3.8724-60.489,13.9422-75.7195,16.9142-114.1442,23.9194-210.7174,32.9347-291.4424,30.1209-85.0195-3.1798-152.9225-19.3506-206.7146-44.2288a349.59189,349.59189,0,0,1-81.741-52.2827,328.36463,328.36463,0,0,1-44.5598-46.863c-58.6512-74.9148-72.8498-159.8099-95.7836-234.1066-16.7124-54.1416-34.3262-95.3234-74.5078-129.1145a194.12965,194.12965,0,0,0-26.2383-18.5176c-17.2096-10.1906-35.277-17.0025-55.443-22.035-25.2527-6.302-51.5242-9.406-80.0467-10.1762-39.7217-1.0725-82.5973,2.1247-129.625,4.7573-20.9188,1.1583-41.8805,2.2152-63.4182,2.6861-52.5737,1.1497-108.02-.9142-167.1118-10.4416a818.106,818.106,0,0,1-133.6723-33.3141c-116.4141-39.6227-244.1022-111.2663-379.1681-228.5449C1225.035-64.3434,1129.2805-158.6757,1092.5526-196.6667Z"/><path class="aa0712ee-424f-42c7-bf15-2969930bd109" d="M1104.9022-191.4286H3159.4286V733.8797c-17.5959,4.149-58.7557,13.5106-75.0741,16.6949-113.6225,23.5825-209.2564,32.2047-288.9652,29.1899-84.7573-3.4069-151.8593-19.8519-204.7125-44.6998a342.97049,342.97049,0,0,1-80.6346-52.4504,322.34486,322.34486,0,0,1-43.718-46.904c-56.9319-74.3986-70.3149-158.6415-93.5135-232.809-16.4604-52.625-34.503-93.8007-74.4246-127.7701a201.29929,201.29929,0,0,0-25.8492-18.604c-17.1031-10.4274-34.9523-17.5593-54.6058-22.8923-25.1224-6.8169-51.1395-10.2974-79.2214-11.3356-39.5031-1.4605-81.9756,1.6653-128.4933,4.4859-20.6617,1.2409-41.4536,2.4307-62.8521,3.0757-51.9014,1.5645-106.8749.1854-165.8086-8.6561a808.15092,808.15092,0,0,1-132.892-31.6198c-115.0467-37.836-242.3146-107.2873-377.792-223.3891C1233.9721-62.972,1144.2536-150.724,1104.9022-191.4286Z"/><path class="b90acd0a-047a-48e8-874c-d17bb741f9af" d="M1117.2518-186.1905H3154.1905V729.7331c-18.769,4.4256-57.0225,13.0789-74.4287,16.4755-113.1009,23.2457-207.7955,31.4746-286.4879,28.2588-84.4951-3.634-150.7946-20.3563-202.7105-45.1707a336.44741,336.44741,0,0,1-79.5283-52.6181,316.30749,316.30749,0,0,1-42.8761-46.945c-55.2169-73.8796-67.7719-157.4759-91.2434-231.5114-16.2034-51.11-34.6822-92.2753-74.3413-126.4258a209.14188,209.14188,0,0,0-25.4602-18.6904,211.24911,211.24911,0,0,0-53.7686-23.7494c-24.9876-7.343-50.7544-11.1916-78.3962-12.4951-39.284-1.8526-81.3537,1.2058-127.3614,4.2144-20.4048,1.3236-41.0268,2.6451-62.286,3.4654-51.2295,1.9766-105.7294,1.2793-164.5054-6.8707a798.45535,798.45535,0,0,1-132.1118-29.9254C1545.0086,151.6834,1418.1576,84.437,1282.2689-30.4881,1242.9093-61.6005,1159.2266-142.7722,1117.2518-186.1905Z"/><path class="fa5efc23-7f0a-4a30-81f8-04f0682f47f3" d="M1129.6015-180.9524H3148.9524V725.5865c-19.942,4.7022-55.2892,12.6472-73.7833,16.2561-112.5792,22.9088-206.3345,30.7446-284.0107,27.3278-84.2329-3.8611-149.7279-20.864-200.7085-45.6417a330.01737,330.01737,0,0,1-78.4218-52.7858,307.63728,307.63728,0,0,1-42.0342-46.9859c-53.6391-73.2611-65.22-156.3134-88.9734-230.2139-15.9416-49.5968-34.864-90.7473-74.258-125.0814a216.45219,216.45219,0,0,0-78.0026-43.3835c-24.8473-7.8805-50.3689-12.0884-77.571-13.6545-39.0643-2.2491-80.7319.7464-126.2295,3.9429-20.1478,1.4063-40.602,2.8214-61.7199,3.8551-50.5619,2.2973-104.5837,2.3674-163.2023-5.0852a789.06357,789.06357,0,0,1-131.3315-28.2311c-112.3028-34.3006-238.7396-99.3292-375.0397-213.0775C1251.8465-60.229,1174.1997-134.8205,1129.6015-180.9524Z"/><path class="fa5efc23-7f0a-4a30-81f8-04f0682f47f3" d="M1141.9511-175.7143H3143.7143V721.4399c-21.1151,4.9788-53.5559,12.2156-73.1379,16.0367-112.0576,22.5719-204.8736,30.0146-281.5334,26.3968-83.9707-4.0882-148.6171-21.4608-198.7065-46.1128a327.41782,327.41782,0,0,1-77.3154-52.9534,304.59635,304.59635,0,0,1-41.1924-47.0269c-51.9083-72.7571-62.6585-155.1543-86.7033-228.9163-15.6748-48.0854-35.1081-89.1491-74.1747-123.737a229.9338,229.9338,0,0,0-24.6823-18.8634,222.784,222.784,0,0,0-52.0941-25.4637c-24.7008-8.4299-49.983-12.9883-76.7457-14.8141-38.844-2.6499-80.1101.2871-125.0978,3.6715-19.8908,1.489-40.1754,3.0406-61.1538,4.2448-49.8904,2.7216-103.4378,3.4495-161.8991-3.2997a779.97686,779.97686,0,0,1-130.5512-26.5368c-110.9272-32.5525-236.9521-95.3502-373.6635-207.9217C1260.7837-58.8576,1189.1727-126.8688,1141.9511-175.7143Z"/><path class="fb090df3-69aa-4e38-9c94-49ca159a8e69" d="M1154.3007-170.4762H3138.4762V717.2932c-22.2881,5.2554-51.8226,11.784-72.4925,15.8174-111.5359,22.2351-203.4126,29.2845-279.0562,25.4658-83.7085-4.3154-147.5586-21.9497-196.7044-46.5838a320.03608,320.03608,0,0,1-76.209-53.1212,298.38063,298.38063,0,0,1-40.3506-47.0678c-50.1774-72.253-60.0864-153.9991-84.4332-227.6187-15.4032-46.5759-35.2786-87.6352-74.0914-122.3926a236.31194,236.31194,0,0,0-24.2933-18.9499,228.31481,228.31481,0,0,0-51.2568-26.3209c-24.5469-8.9914-49.5925-13.9417-75.9206-15.9735-38.6167-3.1303-79.4883-.1723-123.9659,3.4-19.6338,1.5717-39.7489,3.2598-60.5877,4.6344-49.2189,3.146-102.2819,4.4252-160.596-1.5141a778.31148,778.31148,0,0,1-129.7709-24.8425C1579.198,151.408,1453.5832,90.8546,1316.4603-20.5401,1269.7208-57.4861,1204.1458-118.917,1154.3007-170.4762Z"/><path class="fb090df3-69aa-4e38-9c94-49ca159a8e69" d="M1166.6504-165.2381H3133.2381V713.1466c-23.4612,5.532-50.0893,11.3523-71.8471,15.5981-111.0143,21.8981-201.9517,28.5544-276.5789,24.5347-83.4463-4.5425-146.5002-22.4385-194.7024-47.0548a312.655,312.655,0,0,1-75.1027-53.2889,292.14792,292.14792,0,0,1-39.5086-47.1087c-48.4467-71.749-57.4227-152.8752-82.1632-226.3212-15.0774-45.085-35.449-86.1213-74.0082-121.0482a248.16209,248.16209,0,0,0-23.9042-19.0364,237.3455,237.3455,0,0,0-50.4196-27.178c-24.3844-9.5654-49.2068-14.8233-75.0954-17.133-38.3967-3.5061-78.8665-.6317-122.8341,3.1286-19.3767,1.6544-39.3223,3.479-60.0215,5.024-48.5475,3.5704-101.142,5.5413-159.2929.2713a772.0374,772.0374,0,0,1-128.9906-23.1481c-108.1381-29.2184-233.377-87.3922-370.9112-197.6101C1278.658-56.1146,1219.1188-110.9653,1166.6504-165.2381Z"/><path class="b00c1718-51e4-4590-b5a8-c506ed1e19b8" d="M3128,709c-364.7844,86.0137-529.4871,19.2894-612-62-129.9324-128.0056-68.5449-304.4244-216-411-128.5873-92.9386-259.8074-19.8796-463-36-163.1924-12.9469-392.0917-84.9474-658-360H3128V709Z"/></g><path class="afedbf9e-2044-4013-8f43-ede105634976" d="M3128,709c-364.7844,86.0137-529.4871,19.2894-612-62-129.9324-128.0056-68.5449-304.4244-216-411-128.5873-92.9386-259.8074-19.8796-463-36-163.1924-12.9469-392.0917-84.9474-658-360H3128Z"/><g class="fbcd19c3-eb21-45ee-a58f-59d515c53fc6"><path class="bc513b8a-3d39-42ca-b34c-3ceb75e3509b" d="M-424.0114,1757.5293l74.7883-1205.6891L-186.3455,673.011C-1.96579,810.1779,174.8263,884.8935,339.119,895.0835a635.27247,635.27247,0,0,0,86.86809-.5498c50.6495-3.8257,96.857-13.4365,141.5436-22.7307,57.20069-11.8966,111.22949-23.1337,165.52069-19.7661,54.2142,3.3629,101.9219,21.3765,141.7987,53.5388,47.6086,38.3991,77.4538,91.4012,88.7058,157.5323,8.0465,47.293,6.0452,96.4029,4.11,143.8967-2.9415,72.1937-5.7198,140.3839,22.66569,202.7287,22.78533,50.0447,63.87543,92.4522,125.61693,129.6468,87.8284,52.9091,213.9624,92.2574,374.8994,116.9531l-23.4944,218.5164Z"/><path class="bdabb44c-05b4-4a8a-9092-22e8f1fb9f55" d="M-344.5935,561.8129c2.674,1.9894,160.3575,119.0617,162.8057,120.4607C4.26264,818.8807,181.0133,891.0416,343.65009,900.2805a640.94227,640.94227,0,0,0,86.1191-.9313c50.25081-3.9671,96.0929-13.5408,140.3284-22.7253,56.97-11.8249,110.56979-22.8279,164.13729-19.1211a253.8141,253.8141,0,0,1,63.6937,12.458,231.3,231.3,0,0,1,75.598,42.4906c46.0583,38.5814,74.38842,91.5291,84.9941,157.2264,7.5901,46.8391,5.6036,95.5164,3.9032,142.7005-2.1484,58.6609-3.9277,114.798,11.3752,167.3563a240.48356,240.48356,0,0,0,12.4058,33.4268c22.72852,49.4796,63.36082,91.6984,124.34632,128.8495,86.7382,52.8355,211.3315,92.5497,371.0536,117.7743,2.5051.6622-17.0663,209.3547-13.927,209.8364L-418.459,1752.6255Z"/><path class="bdabb44c-05b4-4a8a-9092-22e8f1fb9f55" d="M-339.964,571.7857c5.3481,3.9786,157.8375,116.9526,162.7339,119.7506C10.4911,827.5834,187.2003,897.1898,348.18119,905.4776a646.96538,646.96538,0,0,0,85.37-1.3129c49.8523-4.1085,95.3289-13.6451,139.1134-22.7198,56.73909-11.7533,109.91-22.5223,162.75389-18.4762a243.38794,243.38794,0,0,1,62.9033,13.0539,225.01868,225.01868,0,0,1,73.8813,43.3045c44.5081,38.7638,71.3231,91.6571,81.2824,156.9205,7.1337,46.3852,5.1619,94.6299,3.6964,141.5043-1.878,57.9563-3.1282,113.5721,12.4382,165.7616a242.31131,242.31131,0,0,0,12.458,33.0758c22.67192,48.9147,62.84632,90.9447,123.07582,128.0523,85.6481,52.762,208.7007,92.8419,367.2078,118.5954,5.0101,1.3246-10.6382,200.1931-4.3596,201.1566L-412.9067,1747.7217Z"/><path class="e97febbf-7d9e-42de-97fd-accf4adeff2e" d="M-335.3344,581.7584c8.0221,5.9679,155.3174,114.8435,162.6621,119.0405C16.7195,836.2862,193.3873,903.3379,352.71239,910.6746a653.25845,653.25845,0,0,0,84.6208-1.6945c49.4537-4.2498,94.5649-13.7493,137.8983-22.7143,56.50839-11.6816,109.25019-22.2165,161.37051-17.8312a233.56666,233.56666,0,0,1,62.113,13.6498,220.15373,220.15373,0,0,1,72.16468,44.1184c42.8608,39.0528,68.2577,91.785,77.5706,156.6147,6.6773,45.9313,4.7202,93.7433,3.48972,140.308-1.60762,57.2517-2.32872,112.3462,13.50108,164.167a244.30985,244.30985,0,0,0,12.5102,32.7248c22.61522,48.3496,62.33182,90.1909,121.80532,127.255,84.5579,52.6885,206.0698,93.1342,363.3621,119.4166,7.5151,1.9869-4.2101,191.0315,5.2076,192.4766L-407.3543,1742.818Z"/><path class="e97febbf-7d9e-42de-97fd-accf4adeff2e" d="M-330.7048,591.7311c10.6961,7.9572,152.7974,112.7345,162.5902,118.3304C22.948,844.9889,199.57439,909.4861,357.24349,915.8716a659.89252,659.89252,0,0,0,83.8717-2.076c49.0552-4.3912,93.8009-13.8536,136.6833-22.7089,56.27751-11.6099,108.59039-21.9108,159.98709-17.1863a224.31485,224.31485,0,0,1,61.3225,14.2458,214.31312,214.31312,0,0,1,70.4481,44.9323c41.28082,39.2621,65.1923,91.913,73.85882,156.3088,6.22088,45.4774,4.27868,92.8568,3.283,139.1118-1.33722,56.5471-1.52912,111.1203,14.56418,162.5724a246.48488,246.48488,0,0,0,12.5623,32.3738c22.55859,47.7845,61.81732,89.4371,120.53492,126.4577,83.4677,52.615,203.4389,93.4264,359.5162,120.2378,10.0202,2.6492,2.218,181.8698,14.775,183.7967L-401.802,1737.9142Z"/><path class="b858ef8a-28fc-457e-8224-117d4e4f55d1" d="M-326.0753,601.7038c13.3702,9.9466,150.2774,110.6254,162.5184,117.6204,192.7333,134.3675,369.31829,196.31,525.33149,201.7444a666.92573,666.92573,0,0,0,83.1227-2.4575c48.6565-4.5326,93.0368-13.9579,135.4682-22.7034,56.04669-11.5383,107.93059-21.6051,158.60359-16.5414a215.58663,215.58663,0,0,1,60.5322,14.8417,208.48346,208.48346,0,0,1,68.7314,45.7461c39.7027,39.4671,62.127,92.041,70.1471,156.003,5.7645,45.0235,3.837,91.9703,3.0763,137.9156-1.0668,55.8426-.7296,109.8944,15.6271,160.9778a248.87086,248.87086,0,0,0,12.6145,32.0228c22.50189,47.2195,61.30272,88.6833,119.26442,125.6604,82.3776,52.5415,200.8081,93.7187,355.6704,121.059,12.5253,3.3114,8.6462,172.7082,24.3424,175.1167L-396.2497,1733.0105Z"/><path class="b29f3126-f834-4576-a1ea-b7289f94bd20" d="M-321.4457,611.6765c16.0442,11.9359,147.7573,108.5164,162.4465,116.9103,194.404,133.8076,370.94759,193.1956,525.305,197.6788a674.29881,674.29881,0,0,0,82.3735-2.8391c48.258-4.674,92.2728-14.0621,134.2531-22.6979,55.81589-11.4666,107.27089-21.2994,157.22019-15.8964a207.35854,207.35854,0,0,1,59.7418,15.4376,202.681,202.681,0,0,1,67.0148,46.56c38.12682,39.6674,59.0617,92.1689,66.4354,155.6971,5.3081,44.5696,3.39542,91.0838,2.8695,136.7194-.7964,55.138.06992,108.6685,16.6902,159.3832a251.43738,251.43738,0,0,0,12.6666,31.6718c22.4453,46.6544,60.78822,87.9295,117.99392,124.8631,81.2874,52.4679,198.1772,94.011,351.8246,121.8802,15.0303,3.9737,15.0743,163.5465,33.9098,166.4368L-390.6973,1728.1067Z"/><path class="b29f3126-f834-4576-a1ea-b7289f94bd20" d="M-316.8162,621.6492c18.7183,13.9252,145.2373,106.4073,162.3747,116.2002C41.6333,871.0972,218.13539,927.9305,370.83689,931.4627a682.11707,682.11707,0,0,0,81.6244-3.2207c47.8594-4.8154,91.5088-14.1663,133.0381-22.6925,55.58509-11.3949,106.611-20.9936,155.83679-15.2515a199.60144,199.60144,0,0,1,58.9514,16.0336,196.92024,196.92024,0,0,1,65.2981,47.3739c36.5535,39.8631,55.99632,92.2969,62.7237,155.3912,4.8517,44.1157,2.9537,90.1973,2.6628,135.5232-.5261,54.4334.8694,107.4426,17.7531,157.7886a254.24963,254.24963,0,0,0,12.7189,31.3208c22.3885,46.0894,60.27362,87.1757,116.72332,124.0658,80.1973,52.3944,195.5464,94.3032,347.9789,122.7014,17.5353,4.636,21.5024,154.3849,43.4771,157.7568L-385.145,1723.203Z"/><path class="b4fd0aea-ff50-4474-bf2d-78b9b824ee9a" d="M-312.1866,631.622c21.3922,15.9145,142.7172,104.2982,162.3028,115.4901C47.8617,879.7999,224.32239,934.0787,375.368,936.6597a690.32457,690.32457,0,0,0,80.87539-3.6023c47.4608-4.9567,90.7447-14.2705,131.8229-22.6869,55.35429-11.3233,105.95129-20.6879,154.45339-14.6066a190.683,190.683,0,0,1,121.7425,64.8173c34.9832,40.0542,52.931,92.4248,59.0119,155.0854,4.3954,43.6618,2.5121,89.3107,2.4561,134.3269-.2556,53.7288,1.669,106.2167,18.8162,156.194a257.30229,257.30229,0,0,0,12.771,30.9698c22.3318,45.5243,59.75912,86.4219,115.45282,123.2685,79.1071,52.3209,192.9155,94.5955,344.1331,123.5226,20.0404,5.2982,27.9305,145.2232,53.0445,149.0769L-379.5926,1718.2992Z"/><path class="b6e432cb-6c7b-4d97-97d2-f6baa263ceeb" d="M-307.557,641.5947c24.0662,17.9038,140.1971,102.1891,162.2309,114.78,199.4162,132.128,375.83549,183.8521,525.22529,185.482a698.98175,698.98175,0,0,0,80.1262-3.9838c47.0622-5.0981,89.98061-14.3748,130.6079-22.6815,55.12339-11.2516,105.29149-20.3822,153.06989-13.9616a184.687,184.687,0,0,1,119.2355,66.2271c33.4165,40.2407,49.8656,92.5527,55.3002,154.7795,3.9389,43.2079,2.0705,88.4242,2.2494,133.1307.01472,53.0242,2.4685,104.9908,19.8791,154.5993a260.646,260.646,0,0,0,12.8232,30.6189c22.2752,44.9592,59.24462,85.6681,114.18242,122.4712,78.0169,52.2474,190.2846,94.8877,340.2872,124.3437,22.5454,5.9606,34.3586,136.0616,62.6119,140.397L-374.0403,1713.3955Z"/><path class="b6e432cb-6c7b-4d97-97d2-f6baa263ceeb" d="M-302.9275,651.5674c26.7403,19.8931,137.6771,100.0801,162.1592,114.0699C60.3186,897.2054,236.69649,946.375,384.43029,947.0537a708.16719,708.16719,0,0,0,79.3771-4.3653c46.6637-5.2395,89.21661-14.4791,129.3929-22.676,54.89259-11.18,104.63159-20.0765,151.68649-13.3168a178.91737,178.91737,0,0,1,116.7284,67.637c31.8537,40.4229,46.8003,92.6807,51.5885,154.4736,3.4825,42.754,1.6288,87.5376,2.0426,131.9345.2852,52.3197,3.268,103.7649,20.9422,153.0047a264.289,264.289,0,0,0,12.8753,30.2679c22.2185,44.3942,58.73012,84.9143,112.91192,121.6739,76.9268,52.1738,187.6538,95.18,336.4414,125.1649,25.0505,6.6229,40.7868,126.9,72.1793,131.7171L-368.488,1708.4917Z"/><path class="ab60204d-94ea-4c90-a91a-952a09195c2f" d="M-298.2979,661.5401c29.4143,21.8825,135.157,97.971,162.0873,113.3598C66.547,905.9082,242.88349,952.5231,388.96139,952.2508a717.84145,717.84145,0,0,0,78.628-4.747c46.2651-5.3808,88.45261-14.5833,128.17779-22.6705,54.66182-11.1083,103.9719-19.7708,150.3031-12.6718a172.70686,172.70686,0,0,1,55.7899,18.4174,174.6171,174.6171,0,0,1,58.4316,50.6294c30.2953,40.6007,43.6116,92.8171,47.8767,154.1677,2.9411,42.3061,1.1871,86.6511,1.8358,130.7383.5556,51.6151,4.1665,102.5028,22.0052,151.4101a272.71533,272.71533,0,0,0,12.92752,29.9169c22.16188,43.8291,58.2156,84.1605,111.6414,120.8766,75.8366,52.1003,185.0229,95.4722,332.5957,125.9861,27.5555,7.2851,47.2148,117.7383,81.7466,123.0371L-362.9356,1703.588Z"/><path class="ab60204d-94ea-4c90-a91a-952a09195c2f" d="M-293.6684,671.5128c32.0884,23.8718,132.637,95.862,162.0155,112.6498C72.7754,914.6109,249.07049,958.6713,393.49259,957.4478a728.03759,728.03759,0,0,0,77.8789-5.1285C517.238,946.797,559.06,937.6317,598.33418,929.6542c54.431-11.0366,103.3121-19.465,148.9197-12.0268a166.90809,166.90809,0,0,1,54.9995,19.0133,169.30493,169.30493,0,0,1,56.7149,51.4433c28.7419,40.7745,40.547,92.9437,44.1649,153.8618,2.4856,41.8513.7456,85.7646,1.6292,129.5421.826,50.9105,4.9649,101.2765,23.0682,149.8155a277.22162,277.22162,0,0,0,12.9796,29.5658c22.1052,43.2641,57.70109,83.4068,110.37092,120.0794,74.7465,52.0268,182.3921,95.7645,328.7499,126.8073,30.0606,7.9474,53.643,108.5767,91.314,114.3572L-357.3833,1698.6842Z"/><path class="b3ac319c-c1b2-438e-8e5d-f1c1e9d119b9" d="M-289.0388,681.4856c34.7624,25.861,130.1169,93.7528,161.9436,111.9396C79.0039,923.3137,255.25749,964.8194,398.02369,962.6448a738.86092,738.86092,0,0,0,77.1298-5.51c45.4679-5.6637,86.92451-14.7919,125.74759-22.6596,54.2002-10.965,102.6523-19.1594,147.5363-11.3819a161.437,161.437,0,0,1,54.2091,19.6092c23.337,13.5843,41.0431,31.2455,54.9983,52.2572,27.194,40.9445,37.60422,93.0645,40.45322,153.556,2.11338,41.3923.30388,84.878,1.42238,128.3458,1.0964,50.2059,5.6667,100.0872,24.1312,148.2209a277.35721,277.35721,0,0,0,13.0319,29.2148c22.04852,42.6991,57.18652,82.653,109.10042,119.2821,73.6563,51.9533,179.7611,96.0567,324.904,127.6285,32.5656,8.6097,60.0711,99.415,100.8814,105.6773L-351.8309,1693.7805Z"/><path class="aa0712ee-424f-42c7-bf15-2969930bd109" d="M-284.4092,691.4583c37.4364,27.8504,127.5968,91.6438,161.8717,111.2295,207.7698,129.3286,383.982,168.2798,525.09229,165.154a750.21545,750.21545,0,0,0,76.3807-5.8916c45.0694-5.805,86.16051-14.8961,124.53259-22.6541,53.9694-10.8934,101.9925-18.8536,146.1528-10.737a156.28513,156.28513,0,0,1,53.4188,20.2052c22.9591,13.9343,40.052,31.8685,53.2816,53.071,25.6519,41.1113,34.5389,93.1925,36.7415,153.2502,1.6569,40.9384-.13778,83.9915,1.2157,127.1496,1.3667,49.5013,6.4661,98.8613,25.1942,146.6263a282.58889,282.58889,0,0,0,13.084,28.8638c21.9918,42.134,56.672,81.8992,107.82992,118.4848,72.5661,51.8797,177.1303,96.349,321.0582,128.4497,35.0707,9.2719,66.4992,90.2533,110.4488,96.9973L-346.2786,1688.8767Z"/><path class="aa0712ee-424f-42c7-bf15-2969930bd109" d="M-279.7797,701.431c40.1105,29.8397,125.0768,89.5347,161.7999,110.5195C91.4608,940.7192,267.63149,977.1157,407.086,973.0389c26.01949-.8258,51.29149-3.0587,75.63159-6.2732,44.6707-5.9464,85.39641-15.0004,123.31749-22.6487,53.7385-10.8217,101.3327-18.5478,144.7694-10.092a151.42882,151.42882,0,0,1,52.6283,20.8011c22.58122,14.2843,39.0643,32.4899,51.565,53.8849,24.1161,41.275,31.4735,93.3205,33.0297,152.9443,1.2006,40.4845-.5793,83.105,1.009,125.9534,1.6372,48.7967,7.2657,97.6354,26.2572,145.0316a288.35277,288.35277,0,0,0,13.1362,28.5129c21.93512,41.569,56.1575,81.1454,106.55942,117.6875,71.476,51.8062,174.4995,96.6412,317.2125,129.2708,37.5757,9.9343,72.9273,81.0918,120.0161,88.3175L-340.7263,1683.9729Z"/><path class="b90acd0a-047a-48e8-874c-d17bb741f9af" d="M-275.1501,711.4037c42.7845,31.829,122.5568,87.4257,161.728,109.8094C97.6892,949.4219,273.81859,983.2639,411.61709,978.2359c25.821-1.0007,50.8294-3.3702,74.8825-6.6547,44.2722-6.0878,84.63241-15.1047,122.10241-22.6432,53.50778-10.7501,100.67288-18.2422,143.386-9.4471a146.85615,146.85615,0,0,1,51.838,21.397c22.20328,14.6343,38.08008,33.1099,49.84828,54.6988,22.5871,41.4362,28.4082,93.4484,29.318,152.6384.7442,40.0306-1.021,82.2185.8023,124.7573,1.9075,48.0921,8.0652,96.4094,27.3202,143.4369a294.671,294.671,0,0,0,13.1883,28.1619c21.8785,41.0039,55.643,80.3916,105.28892,116.8902,70.3858,51.7327,171.8686,96.9335,313.3667,130.092,40.0807,10.5966,79.3554,71.9301,129.5835,79.6375L-335.1739,1679.0692Z"/><path class="fa5efc23-7f0a-4a30-81f8-04f0682f47f3" d="M-270.5206,721.3764c45.4586,33.8183,120.0368,85.3166,161.6562,109.0993,212.782,127.649,388.87,158.9363,525.01259,152.9572,25.6225-1.1756,50.3673-3.6816,74.1334-7.0363,43.8736-6.2291,83.8683-15.2089,120.88741-22.6377,53.27688-10.6784,100.01308-17.9364,142.00248-8.8022a142.556,142.556,0,0,1,51.0477,21.993c21.8254,14.9843,37.09982,33.7289,48.1316,55.5127,21.0651,41.5956,25.3429,93.5764,25.6063,152.3325.2878,39.5768-1.4627,81.332.5955,123.5611,2.178,47.3875,8.8648,95.1835,28.3832,141.8423a301.71182,301.71182,0,0,0,13.2405,27.8109c21.8218,40.4388,55.1285,79.6378,104.01852,116.0929,69.2956,51.6592,169.2377,97.2257,309.5208,130.9132,42.5858,11.2588,85.7836,62.7685,139.1509,70.9576L-329.6216,1674.1654Z"/><path class="fa5efc23-7f0a-4a30-81f8-04f0682f47f3" d="M-265.891,731.3491c48.1326,35.8077,117.5167,83.2076,161.5844,108.3893,214.4527,127.089,390.49919,155.8218,524.986,148.8915,25.4239-1.3506,49.9051-3.9931,73.3842-7.4178,43.4751-6.3706,83.1043-15.3132,119.67229-22.6322,53.0462-10.6068,99.3534-17.6308,140.6192-8.1573a138.51267,138.51267,0,0,1,50.2572,22.5889c21.4475,15.3343,36.1236,34.3472,46.4151,56.3266,19.5505,41.7539,22.2774,93.7043,21.8945,152.0267-.1686,39.1228-1.9043,80.4454.3888,122.3648,2.44832,46.6829,9.6642,93.9576,29.4462,140.2477,3.88612,9.1494,8.2927,18.3117,13.2926,27.4599,21.7652,39.8738,54.614,78.884,102.748,115.2956,68.2055,51.5856,166.6068,97.518,305.675,131.7344,45.0909,11.9211,92.2117,53.6068,148.7182,62.2776L-324.0692,1669.2617Z"/><path class="fb090df3-69aa-4e38-9c94-49ca159a8e69" d="M-261.2614,741.3219c50.8066,37.7969,114.9966,81.0984,161.5125,107.6791,216.1234,126.5292,392.12849,152.7073,524.95939,144.8259,25.2253-1.5255,49.443-4.3046,72.6352-7.7994,43.0764-6.5119,82.3402-15.4174,118.45719-22.6267,52.8153-10.5351,98.6935-17.325,139.2357-7.5123a134.7163,134.7163,0,0,1,49.4669,23.1848c21.0696,15.6843,35.15152,34.965,44.6984,57.1405,18.0436,41.9116,19.21212,93.8322,18.1827,151.7208-.625,38.6689-2.3459,79.5589.1821,121.1686,2.7188,45.9783,10.4638,92.7317,30.5092,138.6531q5.88225,13.53345,13.3449,27.1089c21.7084,39.3087,54.0994,78.1303,101.47742,114.4984,67.1153,51.512,163.976,97.8101,301.8293,132.5555,47.5959,12.5834,98.6397,44.4451,158.2855,53.5977L-318.5169,1664.3579Z"/><path class="fb090df3-69aa-4e38-9c94-49ca159a8e69" d="M-256.6319,751.2946c53.4806,39.7862,112.4766,78.9894,161.4407,106.969C122.6029,984.2329,298.56659,1007.8565,429.74159,999.024c25.0268-1.7006,48.9809-4.6161,71.8861-8.181,42.6779-6.6533,81.5762-15.5217,117.24219-22.6213,52.5845-10.4634,98.0337-17.0193,137.8523-6.8674a131.15667,131.15667,0,0,1,48.6764,23.7808c20.6918,16.0343,34.2152,35.5705,42.9818,57.9544,16.6035,42.0463,16.1468,93.9602,14.471,151.4149-1.08138,38.215-2.7875,78.6724-.0246,119.9724,2.9891,45.2737,11.2633,91.5058,31.57222,137.0585q5.93517,13.3428,13.397,26.7579c21.65178,38.7436,53.58488,77.3765,100.2069,113.7011,66.0252,51.4385,161.3452,98.1024,297.9835,133.3767,50.1009,13.2456,105.0679,35.2835,167.8529,44.9177L-312.9646,1659.4542Z"/><path class="b00c1718-51e4-4590-b5a8-c506ed1e19b8" d="M1474.1636,1765.0607c-383.2178-58.804-528.74012-188.5006-583.9436-309.7465-83.33162-183.0247,26.44138-374.6945-84.42822-464.1173-84.4122-68.0833-201.19078.1578-371.519,13.0241C274.41219,1016.2966,43.861,981.3712-252.0023,761.2673l-55.4099,893.2831Z"/></g><path class="afd1f986-74cd-465a-b387-332ab2b212f3" d="M1474.1636,1765.0607c-383.2178-58.804-528.74012-188.5006-583.9436-309.7465-83.33162-183.0247,26.44138-374.6945-84.42822-464.1173-84.4122-68.0833-201.19078.1578-371.519,13.0241C274.41219,1016.2966,43.861,981.3712-252.0023,761.2673l-55.4099,893.2831Z"/><g class="fbcd19c3-eb21-45ee-a58f-59d515c53fc6"><path class="bc513b8a-3d39-42ca-b34c-3ceb75e3509b" d="M-721.2473,1654.3426-378.4078,496.0074-246.795,650.5697C-97.8074,825.5364,57.7679,937.9383,215.60809,984.6543a635.28268,635.28268,0,0,0,84.78591,18.9136c50.22019,7.6117,97.40649,8.5906,143.03949,9.5375,58.4122,1.2125,113.5854,2.3575,165.74419,17.7953,52.0849,15.4159,94.54832,43.6537,126.2117,83.9278,37.8025,48.0837,55.023,106.4225,51.1829,173.394-2.7465,47.8939-15.6926,95.309-28.2124,141.1638-19.0308,69.7023-37.0061,135.5393-23.3,202.6567,11.002,53.8758,41.554,104.4066,93.4003,154.4807,73.7525,71.2304,187.87442,137.8208,339.19642,197.9227l-71.8231,207.7086Z"/><path class="b29f3126-f834-4576-a1ea-b7289f94bd20" d="M-376.1287,506.7635c2.1608,2.5375,129.629,151.9426,131.7019,153.8542,150.7412,174.795,306.8481,284.698,463.28739,330.1161a630.4,630.4,0,0,0,82.8787,18.273c49.0599,7.3655,95.1794,8.3546,139.7642,9.2913,57.104,1.2006,111.0282,2.2991,161.97689,17.0561,50.9897,14.741,92.6922,41.7482,123.97262,80.3816,37.54148,46.173,54.64788,102.3971,52.56408,167.4673-1.522,47.5295-13.395,94.9392-25.8019,141.1292-18.6803,69.2804-37.0403,135.2474-24.4461,202.7489,7.2018,38.386,24.0338,75.2527,51.3172,111.5799a421.848,421.848,0,0,0,38.6123,44.2969c71.8996,72.0259,184.36522,140.0622,336.37792,201.799,2.7053,1.5406-62.5089,200.8849-58.7564,202.3753L-707.9667,1652.8106l39.6284-158.7727Z"/><path class="b3ac319c-c1b2-438e-8e5d-f1c1e9d119b9" d="M-373.8495,517.5195c4.3215,5.0751,127.6451,149.3229,131.7908,153.1461C-89.5638,845.2891,67.0747,952.693,222.11309,996.8134a625.84248,625.84248,0,0,0,80.9714,17.6323c47.8996,7.1193,92.9523,8.1187,136.489,9.0452,55.7958,1.1885,108.471,2.2405,158.20959,16.3169,49.8945,14.066,90.75992,39.9065,121.7335,76.8352,37.189,44.3393,54.3212,98.3976,53.94542,161.5406-.28092,47.1909-11.09762,94.5695-23.39152,141.0948-18.3298,68.8584-37.0744,134.9554-25.5922,202.8409,6.58372,38.4783,22.551,75.608,48.9179,112.3113a414.759,414.759,0,0,0,37.5409,44.9616c70.0466,72.8216,180.856,142.3036,333.55932,205.6754,5.4107,3.0812-53.1947,194.0611-45.6897,197.042L-694.6861,1651.2787l30.5372-152.9385Z"/><path class="fb090df3-69aa-4e38-9c94-49ca159a8e69" d="M-371.5703,528.2756c6.4822,7.6126,125.6613,146.7031,131.8797,152.438C-85.442,855.1654,71.8313,959.7014,225.36559,1002.893a633.31964,633.31964,0,0,0,79.0641,16.9916c46.7394,6.8731,90.72531,7.8827,133.2138,8.7991,54.48751,1.1764,105.9139,2.182,154.4423,15.5776,48.79939,13.3912,88.87009,38.0324,119.49429,73.289,36.8874,42.467,54.04692,94.4222,55.3267,155.6139.9804,46.8769-8.8001,94.1997-20.9809,141.0603-17.9794,68.4364-37.1087,134.6635-26.7384,202.9329,5.96552,38.5706,21.0681,75.9633,46.5186,113.0428a400.812,400.812,0,0,0,36.4694,45.6263c68.0138,73.7834,177.3469,144.545,330.74082,209.5516,8.116,4.6219-43.8805,187.2375-32.623,191.7088L-681.4054,1649.7467l21.4458-147.1041Z"/><path class="a4250ec2-641f-493e-9c49-5483fa4af255" d="M-369.2912,539.0317c8.643,10.1501,123.6775,144.0833,131.9688,151.7298C-81.3202,865.0418,76.5122,966.9711,228.61809,1008.9726a633.35662,633.35662,0,0,0,77.1568,16.3509c45.57911,6.6268,88.4983,7.6468,129.9386,8.5529,53.1793,1.1645,103.3567,2.1235,150.675,14.8384,47.70419,12.7163,86.98359,36.1577,117.25519,69.7427,36.5894,40.5943,53.8286,90.4689,56.708,149.6872,2.2651,46.5864-6.5026,93.8299-18.5705,141.0259-17.6289,68.0145-37.1428,134.3715-27.8845,203.025,5.3474,38.6628,19.5852,76.3185,44.1194,113.7741a392.7267,392.7267,0,0,0,35.39792,46.2911c66.10968,74.6181,173.83758,146.7864,327.9222,213.4279,10.8213,6.1625-34.5663,180.4138-19.5563,186.3754L-668.1248,1648.2147l12.3545-141.2698Z"/><path class="bbd3df99-0168-4ba3-b061-c959e70408a2" d="M-367.012,549.7878c10.8037,12.6876,121.6936,141.4636,132.0577,151.0216C-77.1984,874.9181,81.1895,974.2493,231.87059,1015.0522a633.84243,633.84243,0,0,0,75.2495,15.7102c44.41891,6.3806,86.2712,7.4108,126.6633,8.3068,51.8712,1.1524,100.7997,2.065,146.9078,14.0992,46.609,12.0413,85.10081,34.282,115.01609,66.1964,36.2955,38.7209,53.66972,86.5347,58.0892,143.7605,3.5771,46.3175-4.2051,93.4601-16.1599,140.9913-17.2784,67.5926-37.1771,134.0796-29.0307,203.1171,4.7292,38.7552,18.1024,76.6738,41.72012,114.5056a385.29979,385.29979,0,0,0,34.32638,46.9558c64.211,75.4449,170.3285,149.0278,325.10372,217.3041,13.5267,7.7032-25.2521,173.5902-6.4896,181.0422L-654.8442,1646.6828l3.2633-135.4356Z"/><path class="a9e06118-25ce-4454-b600-1b337e7413fa" d="M-364.7328,560.5439c12.9644,15.2251,119.7097,138.8438,132.1466,150.3135C-73.0766,884.7944,85.8631,981.537,235.12319,1021.1318a634.7586,634.7586,0,0,0,73.3421,15.0695c43.2586,6.1344,84.0442,7.1749,123.3881,8.0606,50.5629,1.1405,98.2425,2.0065,143.1405,13.36,45.51379,11.3664,83.22179,32.4052,112.777,62.6501,36.0062,36.8465,53.573,82.6168,59.4704,137.8338,4.9204,46.0681-1.8035,93.1163-13.7494,140.9569-16.7818,67.2073-37.3656,133.8034-30.1768,203.2091,4.0247,38.8565,16.7011,76.9808,39.3208,115.237a383.53532,383.53532,0,0,0,33.2549,47.6206c62.3179,76.2641,166.8194,151.2691,322.28522,221.1804,16.232,9.2438-15.9379,166.7664,6.5771,175.7089L-641.5635,1645.1508l-5.8281-129.6013Z"/><path class="a240ae4c-6cc9-4fd7-ab2d-d6d1a43d0824" d="M-362.4536,571.3c15.1252,17.7626,117.7258,136.224,132.2356,149.6053C-68.9548,894.6708,90.533,988.8348,238.37569,1027.2114a636.232,636.232,0,0,0,71.4348,14.4288c42.0984,5.8882,81.8171,6.9389,120.1129,7.8145,49.2547,1.1284,95.6853,1.9479,139.3732,12.6207,44.41859,10.6915,81.347,30.5268,110.53779,59.1038,35.7218,34.9706,53.541,78.7112,60.8518,131.9072,6.2991,45.8347.5041,92.7485-11.339,140.9224-16.4191,66.7878-37.4136,133.5101-31.3229,203.3012,3.3991,38.948,15.22672,77.3336,36.9215,115.9684a377.66569,377.66569,0,0,0,32.1835,48.2853c60.4308,77.0761,163.3101,153.5105,319.46662,225.0566,18.9373,10.7845-6.6237,159.9428,19.6438,170.3757L-628.2829,1643.6188l-14.9194-123.767Z"/><path class="fb9f54ca-aed3-481d-806d-f3eef6b5af59" d="M-360.1745,582.056c17.286,20.3002,115.742,133.6043,132.3246,148.8972C-64.833,904.5471,95.1989,996.1437,241.62819,1033.291a638.26966,638.26966,0,0,0,69.5275,13.7881c40.9381,5.642,79.5901,6.7029,116.8377,7.5684,47.9465,1.1163,93.1282,1.8894,135.6059,11.8815,43.32339,10.0166,79.47671,28.6464,108.29871,55.5575,35.44248,33.0926,53.57538,74.8137,62.233,125.9804,7.71808,45.614,2.80958,92.3803-8.92842,140.888-16.0599,66.3673-37.4582,133.2161-32.4691,203.3932,2.77552,39.0393,13.7506,77.6879,34.5222,116.6998a372.26879,372.26879,0,0,0,31.112,48.9501c58.5504,77.8812,159.801,155.7519,316.64812,228.9329,21.6426,12.3251,2.6905,153.1191,32.7106,165.0424L-615.0023,1642.0869l-24.0107-117.9328Z"/><path class="b1c224b5-2391-433b-bb7e-5135d0aea000" d="M-357.8953,592.8121c19.4467,22.8377,113.7581,130.9846,132.4135,148.1891C-60.7112,914.4235,99.861,1003.4647,244.88069,1039.3706a641.00339,641.00339,0,0,0,67.62031,13.1473c39.77779,5.3959,77.363,6.4671,113.56229,7.3223,46.6384,1.1044,90.5516,1.9177,131.83871,11.1423q63.31272,14.1456,106.05958,52.0112c35.1689,31.212,53.67742,70.9198,63.6143,120.0538,9.182,45.4012,5.1128,92.0113-6.518,140.8534-15.7038,65.9462-37.4992,132.9217-33.6152,203.4854,2.1539,39.1301,12.2726,78.0434,32.1229,117.4312a367.326,367.326,0,0,0,30.0406,49.6148c56.6769,78.6797,156.29182,157.9933,313.82952,232.8091,24.348,13.8658,12.0047,146.2955,45.7773,159.7092L-601.7216,1640.5549l-33.102-112.0984Z"/><path class="ac12eb71-b3ab-4909-902f-1b8a1ee1ad4b" d="M-355.6161,603.5682c21.6074,25.3752,111.7742,128.3648,132.5025,147.4809C-56.5894,924.2998,104.519,1010.799,248.13319,1045.4502a644.54116,644.54116,0,0,0,65.713,12.5066c38.6175,5.1497,75.1359,6.2311,110.2871,7.0762,45.3301,1.0923,87.9944,1.8635,128.0714,10.403q61.67,13.14045,103.82049,48.465c34.9012,29.3278,53.8471,67.0243,64.9955,114.1271,10.6959,45.1909,7.4138,91.6418-4.1075,140.8189-15.351,65.5241-37.5366,132.6269-34.7613,203.5774,1.5342,39.2208,10.7927,78.4001,29.7236,118.1626a362.86488,362.86488,0,0,0,28.9691,50.2796c54.8109,79.4722,152.7826,160.2346,311.011,236.6854,27.0533,15.4064,21.3189,139.4717,58.844,154.3759L-588.441,1639.0229l-42.1933-106.2641Z"/><path class="bd0f78b8-7cb7-4267-907a-06d2d5d53c93" d="M-353.337,614.3243c23.7682,27.9127,109.7904,125.745,132.5915,146.7728,168.2779,173.079,329.9184,257.0506,472.13119,290.4327a648.93265,648.93265,0,0,0,63.8057,11.8659c37.4573,4.9034,72.9089,5.9952,107.0119,6.83,44.0219,1.0803,85.4376,1.8079,124.3041,9.6638q60.0276,12.1332,101.58129,44.9187c34.6399,27.4393,54.0842,63.1217,66.3769,108.2004,12.2648,44.9768,9.7123,91.2718-1.697,140.7845-15.0015,65.1012-37.57058,132.3319-35.9075,203.6694.9166,39.3115,9.3108,78.7578,27.3243,118.8941a358.84021,358.84021,0,0,0,27.89762,50.9443c52.95248,80.259,149.27348,162.476,308.1925,240.5616,29.7586,16.9471,30.6331,132.6481,71.9107,149.0426L-575.1604,1637.491l-51.2846-100.4299Z"/><path class="bd92fada-53e7-420f-a054-7bde503b425a" d="M-351.0578,625.0804c25.9289,30.4502,107.8065,123.1252,132.6804,146.0646,170.0316,172.9075,332.2,254.3675,473.01559,286.4644,20.6806,4.7138,41.3972,8.5937,61.8984,11.2252,36.297,4.6572,70.6818,5.7592,103.7367,6.5839,42.71371,1.0683,82.8813,1.7507,120.5368,8.9246,38.9241,7.4156,72.04559,21.0933,99.34219,41.3723,34.3851,25.5452,54.3868,59.2062,67.7581,102.2738,13.894,44.7513,12.0085,90.9012.7135,140.75-14.655,64.6777-37.601,132.037-37.0536,203.7615a309.69348,309.69348,0,0,0,24.925,119.6254,355.25886,355.25886,0,0,0,26.8262,51.6091c51.1021,81.0407,145.7643,164.7174,305.37392,244.4379,32.464,18.4877,39.9473,125.8244,84.9774,143.7093L-561.8797,1635.959l-60.3759-94.5956Z"/><path class="f2ff3eeb-1a67-403b-af61-6023ab96a509" d="M-348.7786,635.8365C-320.689,668.8242-242.956,756.342-216.0092,781.1929c171.7852,172.7359,334.4774,251.7018,473.89989,282.496,20.078,4.4347,40.1482,8.0926,59.9911,10.5846,35.1368,4.411,68.4548,5.5233,100.4614,6.3377,41.4055,1.0563,80.3255,1.6918,116.7696,8.1854,37.8301,6.7406,70.20121,19.1931,97.10309,37.8261,34.137,23.6441,54.7526,55.2714,69.1393,96.347,15.5883,44.506,14.3022,90.5301,3.1241,140.7155-14.3117,64.2535-37.628,131.7423-38.1998,203.8536a315.89066,315.89066,0,0,0,22.5257,120.3569,352.12955,352.12955,0,0,0,25.7547,52.2738C763.82,1821.9873,856.815,1907.1283,1017.1153,1988.4837c35.1693,20.0282,49.2615,119.0007,98.0441,138.376L-548.5991,1634.4271l-69.4672-88.7614Z"/><path class="aa131788-bee2-4222-9b2e-1c1e43933eec" d="M-346.4995,646.5925c30.2505,35.5253,103.8388,117.8858,132.8584,144.6484,173.5389,172.5642,336.7507,249.0554,474.78429,278.5276,19.4747,4.1582,38.8993,7.5913,58.08381,9.9439,33.97649,4.1648,66.22769,5.2873,97.18619,6.0916,40.0973,1.0443,77.77,1.6308,113.0023,7.4461,36.7366,6.0637,68.36209,17.2862,94.864,34.2798,33.8956,21.7347,55.1778,51.3111,70.5206,90.4204,17.3522,44.2313,16.5933,90.1584,5.5345,140.681-13.9714,63.8287-37.6515,131.4479-39.3459,203.9456a322.51072,322.51072,0,0,0,20.1264,121.0883,349.40507,349.40507,0,0,0,24.6832,52.9386c47.4266,82.5908,138.746,169.2001,299.73692,252.1904,37.8746,21.5689,58.5757,112.177,111.1108,133.0428L-535.3185,1632.8951l-78.5585-82.9271Z"/><path class="b65b0181-51cf-4040-9331-587da5878eeb" d="M-344.2203,657.3486c32.4112,38.0628,101.855,115.266,132.9473,143.9402,175.2926,172.3927,339.0198,246.4305,475.66869,274.5593,18.871,3.8846,37.6504,7.0901,56.1765,9.3032,32.8163,3.9186,64.0007,5.0514,93.911,5.8455,38.7891,1.0322,75.21481,1.5677,109.2349,6.7069,35.6435,5.3844,66.5282,15.3712,92.62491,30.7335,33.66068,19.8149,55.65778,47.3186,71.90188,84.4936,19.1899,43.9164,18.8819,89.7863,7.945,140.6466-13.634,63.4032-37.6715,131.1539-40.492,204.0377A329.56218,329.56218,0,0,0,673.425,1679.4348a347.09951,347.09951,0,0,0,23.61178,53.6032c45.6017,83.3604,135.2368,171.4416,296.91829,256.0668,40.58,23.1095,67.88993,105.3533,124.17753,127.7095L-522.0378,1631.3631l-87.6498-77.0927Z"/><path class="f6163c1e-556a-4906-ac90-c03d694dcad6" d="M-341.9411,668.1047c34.5719,40.6003,99.8711,112.6462,133.0362,143.232,177.0463,172.2211,341.2847,243.8293,476.55309,270.591,18.2667,3.6139,36.4015,6.5888,54.2693,8.6625,31.656,3.6724,61.7736,4.8154,90.6357,5.5993,37.4809,1.0202,72.6599,1.5023,105.4676,5.9677,34.5506,4.7026,64.6987,13.4469,90.38579,27.1872,33.4317,17.883,56.18642,43.2875,73.2832,78.567,21.1045,43.5496,21.06722,89.3925,10.3555,140.6121-13.42328,62.9511-37.5532,130.868-41.6382,204.1297-2.0704,39.7704,1.79092,80.5817,15.3278,122.5511a341.65039,341.65039,0,0,0,22.5403,54.268c43.7857,84.1271,131.7276,173.683,294.0997,259.943,43.28542,24.6502,77.20422,98.5297,137.24432,122.3763L-508.7572,1629.8312l-96.7411-71.2585Z"/><path class="ffc745d5-6782-4380-9bd3-9c1bc2ef606a" d="M-339.662,678.8608c36.7327,43.1378,97.8873,110.0265,133.1253,142.5239,178.7999,172.0495,343.5456,241.2543,477.43739,266.6226,17.662,3.3464,35.1525,6.0876,52.362,8.0218,30.4957,3.4261,59.5465,4.5794,87.3605,5.3532,36.1726,1.0082,70.1052,1.4341,101.7003,5.2284,33.4579,4.018,62.8727,11.5119,88.14669,23.6409,33.2076,15.9365,56.7567,39.211,74.6644,72.6403,23.098,43.1184,23.3648,89.0228,12.766,140.5776-13.0728,62.5292-37.5873,130.5761-42.7843,204.2218-2.6885,39.8627.308,80.937,12.9285,123.2826a340.73746,340.73746,0,0,0,21.4689,54.9327c41.9787,84.8914,128.2184,175.9244,291.2811,263.8193,45.99072,26.1908,86.51842,91.706,150.311,117.043L-495.4766,1628.2992-601.309,1562.875Z"/><path class="a678075f-c5b5-4cca-b0ff-aac64a0f723c" d="M-337.3828,689.6169c38.8934,45.6753,95.9034,107.4067,133.2142,141.8157,180.5536,171.8779,345.8026,238.7088,478.32179,262.6543,17.0569,3.0821,33.9036,5.5863,50.4547,7.381,29.3355,3.18,57.3195,4.3436,84.0852,5.1071,34.8645.9962,67.5568,1.3043,97.9331,4.4893,32.3717,3.2675,61.049,9.5645,85.9076,20.0946,32.987,13.9732,57.36059,35.0829,76.04559,66.7136,25.1705,42.6095,25.6623,88.653,15.1765,140.5431-12.7222,62.1072-37.6215,130.2841-43.9304,204.3139-3.3067,39.955-1.1749,81.2922,10.5292,124.0139a340.27341,340.27341,0,0,0,20.3974,55.5975c40.1807,85.6541,124.7093,178.1657,288.4626,267.6955,48.696,27.7315,95.83262,84.8823,163.37772,111.7098l-1604.7883-474.979-114.9238-59.5899Z"/><path class="a127b03c-f46f-417e-8662-950457f6fe0d" d="M-335.1036,700.373c41.0541,48.2128,93.9195,104.7869,133.3031,141.1076,182.3073,171.7062,348.056,236.196,479.20619,258.6859q24.67725,4.23165,48.5474,6.7403c28.1752,2.9338,55.0924,4.1076,80.81,4.861,33.5563.9841,64.9997,1.2457,94.1658,3.75,31.2765,2.5926,59.2258,7.6038,83.6684,16.5483,32.76779,11.991,57.98889,30.8973,77.427,60.787,27.3201,42.0096,27.95972,88.2832,17.587,140.5086-12.3718,61.6852-37.6557,129.9921-45.0766,204.4059-3.9248,40.0473-2.65768,81.6475,8.1299,124.7454a343.97519,343.97519,0,0,0,19.3259,56.2622c38.5466,86.3467,121.2001,180.4071,285.6441,271.5718,51.40142,29.2721,105.14682,78.0586,176.44442,106.3764L-468.9153,1625.2353l-124.015-53.7557Z"/><path class="f64990e1-7a4f-4286-8506-b6c3bb7a447f" d="M-332.8244,711.129c43.2148,50.7504,91.9356,102.1672,133.3921,140.3995,184.0608,171.5347,350.2681,233.9562,480.09049,254.7176,15.8413,2.5925,31.40581,4.5838,46.6401,6.0996,27.015,2.6876,52.8654,3.8717,77.5348,4.6149,32.248.9721,62.4425,1.1872,90.3985,3.0107,30.1813,1.9177,57.4007,5.6285,81.4293,13.0021,32.547,9.9875,58.63111,26.6487,78.80819,54.8602,29.5425,41.3061,30.2573,87.9134,19.9975,140.4742-12.0213,61.2633-37.6899,129.7002-46.2227,204.4979-4.543,40.1396-4.1406,82.0028,5.7306,125.4768a342.614,342.614,0,0,0,18.25452,56.927c36.69358,87.1423,117.69088,182.6485,282.82548,275.448,54.10669,30.8128,114.461,71.235,189.51112,101.0432L-455.6347,1623.7033l-133.1063-47.9214Z"/><path class="a54a2058-ccef-4256-8c22-ad2b0d84b949" d="M1127.0522,2086.678c-360.323-143.1123-473.11232-302.0983-499.76782-432.6259-40.23738-197.036,109.663-359.262,21.62962-471.2379-67.02561-85.2545-196.11851-44.8922-365.00331-70.4885C125.4049,1088.3024-91.4736,1002.644-330.5453,721.8851l-254.0064,858.1992Z"/></g><path class="f494b4d9-b7b0-4dca-af39-8bb7ac3ace6d" d="M1127.0522,2086.678c-360.323-143.1123-473.11232-302.0983-499.76782-432.6259-40.23738-197.036,109.663-359.262,21.62962-471.2379-67.02561-85.2545-196.11851-44.8922-365.00331-70.4885C125.4049,1088.3024-91.4736,1002.644-330.5453,721.8851l-254.0064,858.1992Z"/><g class="fbcd19c3-eb21-45ee-a58f-59d515c53fc6"><path class="bc513b8a-3d39-42ca-b34c-3ceb75e3509b" d="M2987.1756,900.7689c-86.773-18.3423-161.4263-47.0645-221.8848-85.3688-53.7508-34.0557-97.6093-76.416-130.3556-125.9057-64.3434-97.2392-68.9409-194.8047-72.6337-273.2003-3.6738-77.9669-7.2746-120.5092-43.4429-160.388-22.5639-24.8807-48.0952-38.1124-91.057-47.1938-26.3877-5.5778-56.2708-9.0259-90.8719-13.0181-42.7001-4.9272-91.0984-10.5113-144.0956-21.7125-23.9866-5.0698-46.6317-10.7823-69.2287-17.4639-106.8307-31.5868-209.008-84.9855-303.6943-158.7119-118.5476-92.3061-228.7772-219.02149-327.6265-376.62539L1354.4861-598.52378,3622.7075-119.0634,3402.2299,923.9679l-87.0558,2.0249C3190.4303,928.8928,3080.076,920.4063,2987.1756,900.7689Z"/><path class="b29f3126-f834-4576-a1ea-b7289f94bd20" d="M1365.4854-590.84489l2251.014,475.823L3397.9626,918.8276c-1.0959.0255-85.0611,1.9601-86.0769,1.948-123.5858,2.7048-232.5973-5.8378-324.2816-25.2758-86.063-18.2537-159.782-46.7066-219.3819-84.4441-53.4243-33.8236-96.6939-75.7503-128.9187-124.4518-63.5047-95.9719-68.0843-192.3345-71.7606-270.3632-3.5995-76.3825-7.113-118.9967-42.1276-159.0037-21.8249-24.8922-46.6673-38.5706-88.3369-48.4539-13.7448-3.26-28.4682-5.9985-44.3766-8.5093-13.9101-2.2399-28.6937-4.2427-44.4504-6.4074-42.1428-5.7897-89.8137-11.9473-142.0305-23.0883-23.6747-5.0539-46.1055-10.6642-68.5259-17.1693C2032.3509,122.9589,1930.8713,71.986,1835.858.34049c-118.4744-89.558-230.4043-213.77478-331.7327-371.95788C1501.67-374.37939,1367.9504-586.91469,1365.4854-590.84489Z"/><path class="b3ac319c-c1b2-438e-8e5d-f1c1e9d119b9" d="M1376.4847-583.166,3610.2912-110.9803,3393.6953,913.6873c-2.1917.051-83.0665,1.8952-85.0981,1.871-122.4277,2.5097-230.0963-6.089-320.5647-25.3276-85.353-18.1651-158.1377-46.3488-216.8788-83.5194-53.0979-33.5916-95.7786-75.0847-127.4819-122.9979-62.666-94.7045-67.2277-189.8644-70.8875-267.5261-3.5253-74.7982-6.9514-117.4841-40.8122-157.6193-21.0861-24.9039-45.2425-39.0359-85.6169-49.7142-13.3906-3.5415-27.7464-6.5964-43.2715-9.4933-13.6386-2.5449-28.1104-4.8555-43.5105-7.3219-41.5901-6.6608-88.5292-13.3832-139.9656-24.4642-23.3627-5.0378-45.5793-10.5459-67.8231-16.8746-103.8573-29.713-204.6392-78.2601-299.9797-147.82472-118.4011-86.81-232.0314-208.528-335.8388-367.29027C1511.0555-369.93929,1381.4148-575.30549,1376.4847-583.166Z"/><path class="fb090df3-69aa-4e38-9c94-49ca159a8e69" d="M1387.4841-575.48709,3604.0831-106.9388,3389.428,908.547c-3.2876.0765-81.0719,1.8304-84.1192,1.794-121.2696,2.3145-227.5954-6.3401-316.8478-25.3794-84.6431-18.0765-156.4934-45.9909-214.3758-82.5947-52.7715-33.3595-94.8634-74.4191-126.045-121.544-61.8274-93.4372-66.3712-187.3942-70.0145-264.689-3.4511-73.2139-6.7898-115.9716-39.4968-156.2349-20.3472-24.9156-43.8205-39.509-82.8968-50.9744-13.0375-3.8253-27.0217-7.2212-42.1665-10.4774-13.3645-2.8734-27.5282-5.4725-42.5707-8.2364-41.0413-7.541-87.2445-14.8192-137.9006-25.8401-23.0507-5.0218-45.053-10.4277-67.1203-16.5799-102.3706-28.7761-202.4548-74.8974-298.1224-142.38112C1749.4238-78.6522,1634.0932-197.8715,1527.8068-357.213,1520.4409-365.49919,1394.8792-563.69639,1387.4841-575.48709Z"/><path class="a4250ec2-641f-493e-9c49-5483fa4af255" d="M1398.4834-567.80819l2199.3915,464.911L3385.1608,903.4068c-4.3835.1019-79.0774,1.7654-83.1405,1.717-120.1115,2.1193-225.0944-6.5914-313.1309-25.4313-83.933-17.9879-154.849-45.6331-211.8727-81.67-52.4451-33.1275-93.9481-73.7535-124.6082-120.0901-60.9888-92.1698-65.5146-184.924-69.1414-261.8519-3.3769-71.6295-6.6282-114.4591-38.1815-154.8506-19.6082-24.9272-42.4008-39.9905-80.1767-52.2345-12.6854-4.1117-26.2976-7.8484-41.0614-11.4615-13.0911-3.2037-26.9469-6.0938-41.6308-9.1509-40.496-8.4311-85.96-16.2551-135.8356-27.216-22.7388-5.0058-44.5268-10.3094-66.4175-16.2852-100.8839-27.8392-200.4109-71.3289-296.2651-136.93753-118.4287-81.06-235.2856-198.03447-344.051-357.95506C1529.8264-361.05909,1408.3436-552.08729,1398.4834-567.80819Z"/><path class="bbd3df99-0168-4ba3-b061-c959e70408a2" d="M1409.4828-560.12929,3591.6668-98.8557,3380.8935,898.2665c-5.4794.1274-77.0827,1.7006-82.1616,1.64-118.9534,1.9242-222.5936-6.8426-309.414-25.4831-83.2231-17.8993-153.2048-45.2752-209.3697-80.7453-52.1187-32.8954-93.0328-73.0879-123.1713-118.6362-60.1502-90.9025-64.6582-182.4538-68.2684-259.0148-3.3027-70.0452-6.3842-113.0085-36.8661-153.4662-18.8185-24.9772-40.983-40.4813-77.4567-53.4948-12.3341-4.4007-25.574-8.478-39.9563-12.4455-12.8183-3.5361-26.3663-6.7197-40.691-10.0654-39.9533-9.3317-84.6753-17.6911-133.7706-28.5918-22.4267-4.9898-44.0005-10.1913-65.7147-15.9906-99.3972-26.9023-198.2491-67.9245-294.4078-131.4939-118.3829-78.2616-236.9126-192.7877-348.1571-353.28749C1539.2119-356.619,1421.808-540.47819,1409.4828-560.12929Z"/><path class="a9e06118-25ce-4454-b600-1b337e7413fa" d="M1420.4821-552.45039,3585.4586-94.8141,3376.6262,893.1262c-6.5752.1529-75.0881,1.6357-81.1828,1.563-117.7953,1.7291-220.0926-7.0937-305.6971-25.5349-82.5131-17.8107-151.5604-44.9173-206.8666-79.8206-51.7923-32.6634-92.1175-72.4223-121.7345-117.1823-59.3115-89.6352-63.8016-179.9837-67.3953-256.1777-3.2285-68.4609-6.2094-111.5029-35.5507-152.0819-18.0717-24.993-39.5663-40.982-74.7366-54.7549-11.9836-4.6929-24.8509-9.1102-38.8513-13.4296-12.5459-3.8706-25.7861-7.3503-39.7511-10.9799-39.4126-10.2437-83.3907-19.127-131.7057-29.9677-22.1147-4.9738-43.4742-10.073-65.0119-15.6958-97.9104-25.9655-196.0824-64.5249-292.5505-126.0505-118.3308-75.4692-238.5397-187.5409-352.2632-348.61979C1548.5973-352.17889,1435.2724-528.869,1420.4821-552.45039Z"/><path class="a240ae4c-6cc9-4fd7-ab2d-d6d1a43d0824" d="M1431.4815-544.77149,3579.2505-90.7726,3372.3589,887.9859c-7.6711.1784-73.0935,1.5709-80.2039,1.4861-116.6373,1.5339-217.5917-7.345-301.9803-25.5867-81.803-17.7222-149.916-44.5596-204.3636-78.896-51.4657-32.4314-91.2022-71.7567-120.2976-115.7285-58.4729-88.3677-62.945-177.5134-66.5222-253.3405-3.1543-66.8766-6.0363-109.9954-34.2354-150.6975-17.3258-25.0078-38.1498-41.4933-72.0165-56.0152-11.6332-4.9882-24.1278-9.7451-37.7462-14.4136-12.2737-4.2075-25.206-7.9857-38.8113-11.8944-38.8728-11.1677-82.1061-20.563-129.6406-31.3436-21.8028-4.9577-42.9599-9.9087-64.3091-15.4011-96.4775-24.8204-193.911-61.1302-290.6932-120.6069-118.2728-72.6835-240.1668-182.2941-356.3693-343.95219C1557.9828-347.73879,1448.7368-517.25989,1431.4815-544.77149Z"/><path class="fb9f54ca-aed3-481d-806d-f3eef6b5af59" d="M1442.4808-537.09259,3573.0423-86.731,3368.0916,882.8456c-8.7669.2039-71.0989,1.506-79.2251,1.4091-115.4791,1.3388-215.0907-7.5962-298.2633-25.6385-81.0931-17.6336-148.2718-44.2017-201.8606-77.9713-51.1393-32.1993-90.2869-71.091-118.8607-114.2746-57.6343-87.1004-62.0885-175.0432-65.6492-250.5034-3.0801-65.2922-5.8648-108.4861-32.92-149.3131-16.5811-25.0213-36.7327-42.0158-69.2964-57.2754-11.2829-5.2872-23.4048-10.383-36.6413-15.3977-12.0014-4.5468-24.6255-8.6262-37.8713-12.8089-38.333-12.1045-80.8215-21.9989-127.5757-32.7194-21.4908-4.9418-42.4342-9.7868-63.6063-15.1065-94.9934-23.8682-191.7349-57.741-288.8359-115.1633C1829.277-51.8221,1705.692-158.9647,1587.0104-321.202,1567.3682-343.29869,1462.2011-505.65079,1442.4808-537.09259Z"/><path class="b1c224b5-2391-433b-bb7e-5135d0aea000" d="M1453.4801-529.41369,3566.8342-82.6895,3363.8244,877.7054c-9.8629.2293-69.1043,1.4411-78.2463,1.332-114.3211,1.1437-212.5899-7.8473-294.5465-25.6903-80.3831-17.545-146.6274-43.8438-199.3575-77.0466-50.8129-31.9673-89.3716-70.4254-117.4239-112.8207-56.7956-85.833-61.2319-172.573-64.7761-247.6663-3.0059-63.7079-5.6953-106.975-31.6046-147.9288-15.8376-25.0337-35.3139-42.5499-66.5764-58.5356-10.9321-5.5899-22.6812-11.0237-35.5362-16.3817-11.7289-4.8887-24.0445-9.2717-36.9315-13.7234-37.7918-13.0547-79.5369-23.4349-125.5107-34.0953-21.1787-4.9257-41.9083-9.6657-62.9035-14.8118-93.5081-22.9201-189.5541-54.3577-286.9786-109.7197-118.1392-67.1333-243.4209-171.8006-364.5815-334.61709C1576.7537-338.85859,1475.6655-494.04169,1453.4801-529.41369Z"/><path class="ac12eb71-b3ab-4909-902f-1b8a1ee1ad4b" d="M1464.4795-521.73479,3560.626-78.6479l-201.0689,951.213c-10.9587.2548-67.1097,1.3762-77.2675,1.255-113.1629.9486-210.0889-8.0985-290.8295-25.7421-79.6731-17.4565-144.9831-43.486-196.8545-76.1219-50.4865-31.7352-88.4563-69.7598-115.987-111.3668-55.957-84.5657-60.3754-170.1028-63.903-244.8292-2.9317-62.1236-5.5281-105.4622-30.2894-146.5444-15.0953-25.0451-33.8919-43.0959-63.8563-59.7958-10.5803-5.8967-21.957-11.6675-34.4311-17.3658-11.4558-5.2331-23.4625-9.9224-35.9916-14.6379-37.2483-14.0189-78.2523-24.8708-123.4458-35.4712-20.8667-4.9097-41.3822-9.5454-62.2007-14.5171-92.0216-21.9761-187.369-50.9807-285.1213-104.2761C1861.3151-41.218,1734.3315-143.402,1610.6918-306.79769,1586.1392-334.41849,1489.1299-482.43249,1464.4795-521.73479Z"/><path class="bd0f78b8-7cb7-4267-907a-06d2d5d53c93" d="M1475.4788-514.05589,3554.4179-74.6063,3355.2898,867.4248c-12.0546.2803-65.1151,1.3114-76.2887,1.1781-112.0048.7533-207.5879-8.3498-287.1126-25.794-78.9631-17.3679-143.3388-43.1281-194.3514-75.1972-50.1601-31.5032-87.541-69.0942-114.5502-109.9129-55.1184-83.2983-59.5189-167.6327-63.0299-241.9921-2.8575-60.5392-5.363-103.9477-28.974-145.1601-14.3545-25.0554-32.4656-43.654-61.1362-61.0559-10.2272-6.2075-21.2318-12.3142-33.3261-18.3499-11.1818-5.5803-22.8791-10.5781-35.0518-15.5524-36.7006-14.9975-76.9677-26.3068-121.3807-36.847-20.5548-4.8938-40.8559-9.4262-61.4979-14.2225-90.534-21.0364-185.1799-47.6104-283.264-98.8325-117.9844-61.6145-246.6751-161.307-372.7937-325.28189C1595.5246-329.97839,1502.5943-470.82339,1475.4788-514.05589Z"/><path class="bd92fada-53e7-420f-a054-7bde503b425a" d="M1486.4782-506.377,3548.2097-70.5648,3351.0225,862.2845c-13.1505.3058-63.1204,1.2465-75.3098,1.1011-110.8468.5582-205.087-8.6009-283.3957-25.8458-78.2532-17.2793-141.6945-42.7702-191.8485-74.2725-49.8336-31.2711-86.6257-68.4286-113.1133-108.459-54.2797-82.031-58.6623-165.1625-62.1568-239.155-2.7833-58.9549-5.2005-102.4317-27.6586-143.7757-13.6153-25.0648-31.0334-44.2242-58.4162-62.3162-9.872-6.5225-20.5053-12.9638-32.221-19.3339-10.9067-5.9302-22.2938-11.2388-34.112-16.4669-36.1475-15.9909-75.683-27.7427-119.3157-38.2229-20.2428-4.8777-40.3293-9.3079-60.7951-13.9278-89.0453-20.1012-182.9869-44.2474-281.4067-93.3889-117.8997-58.8679-248.3021-156.0603-376.8998-320.61429C1604.9101-325.53829,1516.0587-459.21429,1486.4782-506.377Z"/><path class="f2ff3eeb-1a67-403b-af61-6023ab96a509" d="M1497.4775-498.69809,3542.0016-66.5232,3346.7552,857.1443c-14.2463.3312-61.1258,1.1816-74.331,1.024-109.6886.3631-202.5861-8.8521-279.6788-25.8976-77.5431-17.1907-140.0502-42.4124-189.3454-73.3479-49.5072-31.039-85.7104-67.7629-111.6764-107.005-53.4411-80.7636-57.8058-162.6923-61.2838-236.3179-2.7091-57.3706-5.0407-100.9143-26.3433-142.3913-12.8776-25.0734-29.5936-44.806-55.696-63.5764-9.5141-6.8417-19.7772-13.6163-31.116-20.318-10.6299-6.2827-21.7063-11.9043-33.1721-17.3814-35.5874-16.9994-74.3985-29.1787-117.2508-39.5988-19.9307-4.8617-39.8024-9.1906-60.0923-13.6331-87.5555-19.1705-180.7902-40.892-279.5494-87.9453-117.8107-56.1304-249.9292-150.8135-381.0059-315.94669C1614.2955-321.09819,1529.5231-447.60519,1497.4775-498.69809Z"/><path class="aa131788-bee2-4222-9b2e-1c1e43933eec" d="M1508.4769-491.01919,3535.7934-62.4817,3342.4879,852.004c-15.3422.3567-59.1312,1.1167-73.3521.9471-108.5306.1679-200.0852-9.1034-275.9619-25.9494-76.8332-17.1022-138.4059-42.0546-186.8424-72.4233-49.1808-30.8069-84.7951-67.0973-110.2396-105.5511-52.6025-79.4963-56.9492-160.2221-60.4107-233.4808-2.6349-55.7863-4.8838-99.3956-25.0279-141.007-12.1418-25.0811-28.1448-45.3986-52.976-64.8366-9.1528-7.1648-19.047-14.2714-30.0109-21.302-10.3513-6.6378-21.116-12.5746-32.2323-18.2958-35.0184-18.0231-73.1138-30.6147-115.1857-40.9748-19.6188-4.8456-39.2754-9.0745-59.3895-13.3384-86.0648-18.2447-178.5903-37.5446-277.6921-82.5017-117.7181-53.4023-251.5563-145.5667-385.112-311.27909C1623.681-316.65809,1542.9875-435.99609,1508.4769-491.01919Z"/><path class="b65b0181-51cf-4040-9331-587da5878eeb" d="M1519.4762-483.34029,3529.5853-58.4401,3338.2207,846.8637c-16.4381.3822-57.1367,1.0519-72.3734.8701-107.3724-.0272-197.5842-9.3545-272.245-26.0012-76.1232-17.0136-136.7615-41.6967-184.3393-71.4986-48.8544-30.5749-83.8798-66.4317-108.8028-104.0973-51.7638-78.2288-56.0926-157.7519-59.5376-230.6436-2.5607-54.2019-4.73-97.8757-23.7125-139.6226-11.4078-25.0883-26.6854-46.0013-50.256-66.0968-8.7875-7.492-18.3146-14.929-28.9058-22.2861a360.55074,360.55074,0,0,0-31.2924-19.2103c-34.439-19.0619-71.8293-32.0507-113.1208-42.3506-19.3068-4.8297-38.7481-8.9596-58.6867-13.0438-84.5731-17.3238-176.3875-34.2057-275.8348-77.0581-117.622-50.6841-253.1834-140.32-389.2181-306.61149C1633.0664-312.218,1556.4518-424.38689,1519.4762-483.34029Z"/><path class="f6163c1e-556a-4906-ac90-c03d694dcad6" d="M1530.4755-475.66139,3523.3771-54.3986l-189.4237,896.122c-17.534.4077-55.142.987-71.3945.7931-106.2144-.2223-195.0833-9.6057-268.5282-26.053-75.4131-16.925-135.1172-41.3389-181.8362-70.5739-48.528-30.3428-82.9646-65.766-107.3659-102.6434-50.9252-76.9615-55.2362-155.2817-58.6646-227.8065-2.4865-52.6176-4.5794-96.355-22.3971-138.2382-10.6758-25.0949-25.2139-46.6127-47.5359-67.3571a346.06492,346.06492,0,0,0-27.8008-23.2701,335.41654,335.41654,0,0,0-30.3526-20.1248c-33.8473-20.1153-70.5446-33.4866-111.0558-43.7265-18.9948-4.8137-38.2205-8.8459-57.9839-12.7491-83.0806-16.408-174.1822-30.8756-273.9775-71.6145C1957.5373-9.61656,1820.25-96.7138,1681.7362-263.58449,1642.4519-307.77789,1569.9162-412.77779,1530.4755-475.66139Z"/><path class="ffc745d5-6782-4380-9bd3-9c1bc2ef606a" d="M1541.4749-467.98249,3517.169-50.357,3329.6861,836.5832c-18.6298.4332-53.1474.9221-70.4157.7161-105.0563-.4175-192.5824-9.857-264.8112-26.1049-74.7032-16.8364-133.4729-40.981-179.3333-69.6492-48.2015-30.1108-82.0492-65.1004-105.929-101.1895-50.0865-75.6941-54.3796-152.8115-57.7915-224.9694-2.4123-51.0333-4.4323-94.8336-21.0818-136.8539a199.08407,199.08407,0,0,0-44.8158-68.6172,325.72977,325.72977,0,0,0-26.6957-24.2542,314.00141,314.00141,0,0,0-29.4127-21.0393c-33.2416-21.1831-69.26-34.9226-108.9908-45.1024-18.6828-4.7976-37.6855-8.7726-57.2811-12.4544-81.5565-15.6597-171.975-27.5547-272.1202-66.171C1973.5852-4.38431,1834.5697-88.9325,1693.5769-256.38239,1651.8374-303.33779,1583.3806-401.16869,1541.4749-467.98249Z"/><path class="a678075f-c5b5-4cca-b0ff-aac64a0f723c" d="M1552.4742-460.30359,3510.9608-46.3155l-185.542,877.7584c-19.7257.4587-51.1528.8572-69.4368.6391-103.8982-.6126-190.0815-10.1081-261.0944-26.1567-73.9932-16.7478-131.8285-40.6232-176.8302-68.7245-47.875-29.8787-81.1339-64.4348-104.4921-99.7356-49.248-74.4268-53.5231-150.3413-56.9185-222.1323-2.3381-49.4489-4.3657-93.2835-19.7664-135.4695a209.85833,209.85833,0,0,0-42.0957-69.8774,306.8029,306.8029,0,0,0-25.5907-25.2383,295.7978,295.7978,0,0,0-28.4729-21.9538c-32.6201-22.2645-67.9754-36.3585-106.9258-46.4782-18.3708-4.7817-37.1592-8.6544-56.5783-12.1598-80.0697-14.7228-169.7661-24.2433-270.2629-60.7274C1989.6347.83723,1848.8895-81.1511,1705.4177-249.18019,1661.2228-298.89759,1596.845-389.55959,1552.4742-460.30359Z"/><path class="a127b03c-f46f-417e-8662-950457f6fe0d" d="M1563.4736-452.62469,3504.7527-42.2739,3321.1515,826.3026c-20.8215.4842-49.1582.7924-68.458.5621-102.7401-.8077-187.5805-10.3593-257.3774-26.2085-73.2832-16.6592-130.1843-40.2653-174.3272-67.7998-47.5486-29.6467-80.2186-63.7692-103.0553-98.2817-48.4093-73.1594-52.6665-147.8712-56.0454-219.2952-2.2638-47.8646-4.2041-91.771-18.451-134.0852a220.95113,220.95113,0,0,0-39.3757-71.1376,289.32578,289.32578,0,0,0-24.4856-26.2223,280.38154,280.38154,0,0,0-27.533-22.8683c-31.9815-23.3585-66.6908-37.7945-104.8609-47.8541-18.0588-4.7656-36.633-8.5362-55.8755-11.8651-78.5829-13.7859-167.5043-21.0945-268.4056-55.2838C2005.7457,5.87039,1863.2092-73.3697,1717.2584-241.978,1670.6083-294.45749,1610.3094-377.95039,1563.4736-452.62469Z"/><path class="f64990e1-7a4f-4286-8506-b6c3bb7a447f" d="M1574.4729-444.94579,3498.5445-38.2324,3316.8843,821.1623c-21.9175.5097-47.1636.7275-67.4792.4851-101.5821-1.0029-185.0796-10.6105-253.6606-26.2603-72.5732-16.5706-128.5399-39.9074-171.8241-66.8751-47.2222-29.4146-79.3033-63.1036-101.6185-96.8278-47.5706-71.8921-51.8099-145.401-55.1723-216.4581-2.1896-46.2803-4.0425-90.2584-17.1357-132.7008a233.51578,233.51578,0,0,0-36.6556-72.3978,273.36665,273.36665,0,0,0-23.3805-27.2064,267.41444,267.41444,0,0,0-26.5932-23.7828c-31.3239-24.4639-65.4062-39.2304-102.7958-49.23-17.7469-4.7496-36.1068-8.4179-55.1728-11.5704-77.0962-12.849-165.3198-17.7318-266.5482-49.8402-117.082-37.3446-261.3188-114.0861-409.7487-283.27349C1679.9937-290.01739,1623.7738-366.34129,1574.4729-444.94579Z"/><path class="a54a2058-ccef-4256-8c22-ad2b0d84b949" d="M3312.617,816.0221c-374.6867,8.7124-522.0292-90.6318-585.9467-187.2284-100.6503-152.1097-4.1045-312.0189-126.3306-446.7859-106.5866-117.5226-250.0792-73.181-445.5451-130.9755-156.9867-46.41711-366.0468-164.2001-569.3223-488.29919L3492.3364-34.1908Z"/></g><path class="b346b0d9-018c-4297-879a-8944aabd7e4c" d="M3312.617,816.0221c-374.6867,8.7124-522.0292-90.6318-585.9467-187.2284-100.6503-152.1097-4.1045-312.0189-126.3306-446.7859-106.5866-117.5226-250.0792-73.181-445.5451-130.9755-156.9867-46.41711-366.0468-164.2001-569.3223-488.29919L3492.3364-34.1908Z"/><path class="a5a3093b-e6e0-4e1a-8886-eb4b297ff32e" d="M3029.5851,501.9239c-58.804,383.2179-188.5006,528.7401-309.7464,583.9436-183.0248,83.3317-374.6946-26.4413-464.1173,84.4283-68.0833,84.4121.1577,201.1907,13.024,371.519,12.0756,159.8605-22.8498,390.4118-242.9537,686.2751"/><path class="a5a3093b-e6e0-4e1a-8886-eb4b297ff32e" d="M3351.2024,849.0354c-143.1123,360.323-302.0983,473.1122-432.6259,499.7677-197.0359,40.2374-359.262-109.663-471.2379-21.6295-85.2545,67.0256-44.8922,196.1184-70.4885,365.0032-24.0232,158.5058-109.6816,375.3844-390.4406,614.456"/><path class="a5a3093b-e6e0-4e1a-8886-eb4b297ff32e" d="M-445.8363,662.4004c364.7844,86.0136,529.4871,19.2893,612-62,129.93239-128.0056,68.54489-304.4245,216-411,128.58731-92.9386,259.80739-19.8797,463-36,163.19242-12.947,392.09172-84.9475,658-360"/><path class="a5a3093b-e6e0-4e1a-8886-eb4b297ff32e" d="M-630.4533,769.4224c374.6867,8.7125,522.0293-90.6318,585.9467-187.2284C56.1437,430.0843-40.4021,270.1751,81.8241,135.4082,188.4106,17.8855,331.90329,62.2272,527.36909,4.43268,684.35578-41.9844,893.416-159.7674,1096.6915-483.86649"/><circle class="a2bc4253-f15e-4cfa-9a85-703347819f18" cx="2212" cy="1355" r="6"/><circle class="a2bc4253-f15e-4cfa-9a85-703347819f18" cx="2250.1667" cy="1355" r="6"/><circle class="a2bc4253-f15e-4cfa-9a85-703347819f18" cx="2288.3333" cy="1355" r="6"/><circle class="a2bc4253-f15e-4cfa-9a85-703347819f18" cx="2326.5" cy="1355" r="6"/><circle class="a2bc4253-f15e-4cfa-9a85-703347819f18" cx="2364.6667" cy="1355" r="6"/><circle class="a2bc4253-f15e-4cfa-9a85-703347819f18" cx="2402.8333" cy="1355" r="6"/><circle class="a2bc4253-f15e-4cfa-9a85-703347819f18" cx="2441" cy="1355" r="6"/><circle class="a2bc4253-f15e-4cfa-9a85-703347819f18" cx="2479.1667" cy="1355" r="6"/><circle class="a2bc4253-f15e-4cfa-9a85-703347819f18" cx="2517.3333" cy="1355" r="6"/><circle class="a2bc4253-f15e-4cfa-9a85-703347819f18" cx="2555.5" cy="1355" r="6"/><circle class="a2bc4253-f15e-4cfa-9a85-703347819f18" cx="2593.6667" cy="1355" r="6"/><circle class="a2bc4253-f15e-4cfa-9a85-703347819f18" cx="2631.8333" cy="1355" r="6"/><circle class="a2bc4253-f15e-4cfa-9a85-703347819f18" cx="2670" cy="1355" r="6"/><circle class="a2bc4253-f15e-4cfa-9a85-703347819f18" cx="2212" cy="1393" r="6"/><circle class="a2bc4253-f15e-4cfa-9a85-703347819f18" cx="2250.1667" cy="1393" r="6"/><circle class="a2bc4253-f15e-4cfa-9a85-703347819f18" cx="2288.3333" cy="1393" r="6"/><circle class="a2bc4253-f15e-4cfa-9a85-703347819f18" cx="2326.5" cy="1393" r="6"/><circle class="a2bc4253-f15e-4cfa-9a85-703347819f18" cx="2364.6667" cy="1393" r="6"/><circle class="a2bc4253-f15e-4cfa-9a85-703347819f18" cx="2402.8333" cy="1393" r="6"/><circle class="a2bc4253-f15e-4cfa-9a85-703347819f18" cx="2441" cy="1393" r="6"/><circle class="a2bc4253-f15e-4cfa-9a85-703347819f18" cx="2479.1667" cy="1393" r="6"/><circle class="a2bc4253-f15e-4cfa-9a85-703347819f18" cx="2517.3333" cy="1393" r="6"/><circle class="a2bc4253-f15e-4cfa-9a85-703347819f18" cx="2555.5" cy="1393" r="6"/><circle class="a2bc4253-f15e-4cfa-9a85-703347819f18" cx="2593.6667" cy="1393" r="6"/><circle class="a2bc4253-f15e-4cfa-9a85-703347819f18" cx="2631.8333" cy="1393" r="6"/><circle class="a2bc4253-f15e-4cfa-9a85-703347819f18" cx="2670" cy="1393" r="6"/><circle class="a2bc4253-f15e-4cfa-9a85-703347819f18" cx="2212" cy="1431" r="6"/><circle class="a2bc4253-f15e-4cfa-9a85-703347819f18" cx="2250.1667" cy="1431" r="6"/><circle class="a2bc4253-f15e-4cfa-9a85-703347819f18" cx="2288.3333" cy="1431" r="6"/><circle class="a2bc4253-f15e-4cfa-9a85-703347819f18" cx="2326.5" cy="1431" r="6"/><circle class="a2bc4253-f15e-4cfa-9a85-703347819f18" cx="2364.6667" cy="1431" r="6"/><circle class="a2bc4253-f15e-4cfa-9a85-703347819f18" cx="2402.8333" cy="1431" r="6"/><circle class="a2bc4253-f15e-4cfa-9a85-703347819f18" cx="2441" cy="1431" r="6"/><circle class="a2bc4253-f15e-4cfa-9a85-703347819f18" cx="2479.1667" cy="1431" r="6"/><circle class="a2bc4253-f15e-4cfa-9a85-703347819f18" cx="2517.3333" cy="1431" r="6"/><circle class="a2bc4253-f15e-4cfa-9a85-703347819f18" cx="2555.5" cy="1431" r="6"/><circle class="a2bc4253-f15e-4cfa-9a85-703347819f18" cx="2593.6667" cy="1431" r="6"/><circle class="a2bc4253-f15e-4cfa-9a85-703347819f18" cx="2631.8333" cy="1431" r="6"/><circle class="a2bc4253-f15e-4cfa-9a85-703347819f18" cx="2670" cy="1431" r="6"/><circle class="a2bc4253-f15e-4cfa-9a85-703347819f18" cx="2212" cy="1469" r="6"/><circle class="a2bc4253-f15e-4cfa-9a85-703347819f18" cx="2250.1667" cy="1469" r="6"/><circle class="a2bc4253-f15e-4cfa-9a85-703347819f18" cx="2288.3333" cy="1469" r="6"/><circle class="a2bc4253-f15e-4cfa-9a85-703347819f18" cx="2326.5" cy="1469" r="6"/><circle class="a2bc4253-f15e-4cfa-9a85-703347819f18" cx="2364.6667" cy="1469" r="6"/><circle class="a2bc4253-f15e-4cfa-9a85-703347819f18" cx="2402.8333" cy="1469" r="6"/><circle class="a2bc4253-f15e-4cfa-9a85-703347819f18" cx="2441" cy="1469" r="6"/><circle class="a2bc4253-f15e-4cfa-9a85-703347819f18" cx="2479.1667" cy="1469" r="6"/><circle class="a2bc4253-f15e-4cfa-9a85-703347819f18" cx="2517.3333" cy="1469" r="6"/><circle class="a2bc4253-f15e-4cfa-9a85-703347819f18" cx="2555.5" cy="1469" r="6"/><circle class="a2bc4253-f15e-4cfa-9a85-703347819f18" cx="2593.6667" cy="1469" r="6"/><circle class="a2bc4253-f15e-4cfa-9a85-703347819f18" cx="2631.8333" cy="1469" r="6"/><circle class="a2bc4253-f15e-4cfa-9a85-703347819f18" cx="2670" cy="1469" r="6"/><circle class="a2bc4253-f15e-4cfa-9a85-703347819f18" cx="223" cy="14.1667" r="6"/><circle class="a2bc4253-f15e-4cfa-9a85-703347819f18" cx="223" cy="52.3333" r="6"/><circle class="a2bc4253-f15e-4cfa-9a85-703347819f18" cx="223" cy="90.5" r="6"/><circle class="a2bc4253-f15e-4cfa-9a85-703347819f18" cx="223" cy="128.6667" r="6"/><circle class="a2bc4253-f15e-4cfa-9a85-703347819f18" cx="223" cy="166.8333" r="6"/><circle class="a2bc4253-f15e-4cfa-9a85-703347819f18" cx="223" cy="205" r="6"/><circle class="a2bc4253-f15e-4cfa-9a85-703347819f18" cx="185" cy="14.1667" r="6"/><circle class="a2bc4253-f15e-4cfa-9a85-703347819f18" cx="185" cy="52.3333" r="6"/><circle class="a2bc4253-f15e-4cfa-9a85-703347819f18" cx="185" cy="90.5" r="6"/><circle class="a2bc4253-f15e-4cfa-9a85-703347819f18" cx="185" cy="128.6667" r="6"/><circle class="a2bc4253-f15e-4cfa-9a85-703347819f18" cx="185" cy="166.8333" r="6"/><circle class="a2bc4253-f15e-4cfa-9a85-703347819f18" cx="185" cy="205" r="6"/><circle class="a2bc4253-f15e-4cfa-9a85-703347819f18" cx="147" cy="14.1667" r="6"/><circle class="a2bc4253-f15e-4cfa-9a85-703347819f18" cx="147" cy="52.3333" r="6"/><circle class="a2bc4253-f15e-4cfa-9a85-703347819f18" cx="147" cy="90.5" r="6"/><circle class="a2bc4253-f15e-4cfa-9a85-703347819f18" cx="147" cy="128.6667" r="6"/><circle class="a2bc4253-f15e-4cfa-9a85-703347819f18" cx="147" cy="166.8333" r="6"/><circle class="a2bc4253-f15e-4cfa-9a85-703347819f18" cx="147" cy="205" r="6"/><circle class="a2bc4253-f15e-4cfa-9a85-703347819f18" cx="109" cy="14.1667" r="6"/><circle class="a2bc4253-f15e-4cfa-9a85-703347819f18" cx="109" cy="52.3333" r="6"/><circle class="a2bc4253-f15e-4cfa-9a85-703347819f18" cx="109" cy="90.5" r="6"/><circle class="a2bc4253-f15e-4cfa-9a85-703347819f18" cx="109" cy="128.6667" r="6"/><circle class="a2bc4253-f15e-4cfa-9a85-703347819f18" cx="109" cy="166.8333" r="6"/><circle class="a2bc4253-f15e-4cfa-9a85-703347819f18" cx="109" cy="205" r="6"/></g></g></g></svg>