<svg xmlns="http://www.w3.org/2000/svg" xmlns:xlink="http://www.w3.org/1999/xlink" viewBox="0 0 4000 2250"><defs><style>.ae97648e-0f24-4a63-9c05-7cc56a543877,.babda3f2-5352-4432-ab9d-489f4e6ffcf0{mask:url(#b68b7a74-28d7-4cbf-bb98-311966822d9b);}.ae97648e-0f24-4a63-9c05-7cc56a543877{filter:url(#e60e3e64-89cc-4376-8220-5b79fc167982);}.aafa0e8c-c45c-4c4f-8355-b3e96b203bf6,.eb0ba69f-19bd-4abf-9adb-df01d8953ca4,.f33c60c7-2bae-4549-b7de-33ab67956139,.fcb8f4fc-70d0-4dfb-928c-fca28df6af0b{mix-blend-mode:multiply;}.eb0ba69f-19bd-4abf-9adb-df01d8953ca4{fill:url(#b5927bd3-23b2-4346-b50c-865310c79609);}.a3840146-52b7-4b9b-809a-ddc63923268e,.b6acb6f0-6026-4e7a-be9c-0814a2c7f63c{mask:url(#b0eabcfa-b9c6-4530-8cf7-eefb6acbe641);}.f33c60c7-2bae-4549-b7de-33ab67956139{fill:url(#fe1ec5bf-1441-42a3-8fe2-7282217b72ed);}.f204fad5-65bf-4974-85fe-1898c3f3a9e1,.ffc2a3c0-5b3b-4262-a00d-91101377585d{mask:url(#befa2bf4-cd1e-4d42-99fc-114d22e41175);}.f204fad5-65bf-4974-85fe-1898c3f3a9e1{filter:url(#bd86b780-ed6c-4fbe-b2a2-fec2e210c854);}.fcb8f4fc-70d0-4dfb-928c-fca28df6af0b{fill:url(#b4904cab-b3d9-4084-a900-394b21e62c33);}.e34f9605-f71d-422f-9b49-9f75502ca736,.e7e66aaf-2768-49f2-8fd8-3286d86e1151{mask:url(#aed07561-ba7f-4026-9671-42125b082724);}.e34f9605-f71d-422f-9b49-9f75502ca736{filter:url(#b7fe7cb2-16f6-4f2f-abab-e17205b5dc6d);}.aafa0e8c-c45c-4c4f-8355-b3e96b203bf6{fill:url(#a60577ec-44c6-46bc-a8e1-658e87bbd006);}.b6acb6f0-6026-4e7a-be9c-0814a2c7f63c{filter:url(#acc5ed36-01aa-4e84-9855-c69ae4a1bbac);}.ab342731-16de-4ded-a09b-d3b7ac609067{fill:none;}.bd5ecc67-98a2-4c86-b47c-4b8153a0da97{isolation:isolate;}.a75f6b96-add0-49fa-9214-dde4f16b0fa5{clip-path:url(#a87f3a0a-199a-4978-a1be-b8f6ff9f2f85);}.ed2e32e7-0c5a-457b-90b0-bad0257b902a{fill:url(#f0ffa9b5-a570-4eef-a3aa-18bb489e40d2);}.a6d392d5-a533-47fe-ac39-0b60dd90e1bb{fill:url(#ff90ef4c-2376-4462-b77f-c59d5556fce8);}.f45adeff-a7f1-4edf-a1b8-a79b1fef89f1{mask:url(#f25234bc-d91e-4808-a8c9-8e1b1efa1b66);}.b9ae7bc6-2a93-4b22-ac7a-6ae3802c129f,.bcc9281f-a826-4a7a-ae33-0a48f0df22c1,.ea1202da-ed25-4662-a458-86a87109c422,.f4277362-6731-4dde-9708-d88a4db0453a{mix-blend-mode:overlay;}.f4277362-6731-4dde-9708-d88a4db0453a{fill:url(#e8699fdf-53d0-4a01-99e8-caac0154ce29);}.b4c90c59-0a77-4280-9228-c3ad30e190ba{fill:url(#eeb7b638-9f3b-4add-9a17-9240ef14327e);}.b0f793ea-8854-41df-9cbc-4c1fffe783f8{mask:url(#e0e34ab7-b6fb-4ce4-a5d8-3e713876d255);}.ea1202da-ed25-4662-a458-86a87109c422{fill:url(#a3aaf3b7-73f9-443b-9d70-ed641a13b60c);}.bf2a4fcc-e55b-4fd1-bf48-2817d7025274{fill:url(#b19e4364-5d9a-436e-a2c1-3866930fe11f);}.b08b2e82-eccd-4637-969a-15d5084b8205{fill:url(#bcf47c73-b5f8-4c7a-808c-bda0401bd2de);}.e8f3cf85-3816-411f-a5b8-02bb4673a1f0{mask:url(#fc9d9ac9-80c6-4e89-9ea1-e23e1bcc228d);}.bcc9281f-a826-4a7a-ae33-0a48f0df22c1{fill:url(#bdbd2c99-1262-49e8-96b3-f98df62a40dd);}.bdc593b3-c25d-45c3-8b4c-f8596794db8e{fill:url(#a4cd63b4-7ef6-4d09-a23d-b585bba1982e);}.edac9808-433c-4a33-a047-c3861bd28ee5{fill:url(#b5e922cc-4444-4d56-8f87-a6812f874648);}.a58ae922-676e-4c5b-8f43-b6fcea74d5d8{fill:url(#b9ae0889-ded1-4a81-84b9-322e5fd45d5b);}.e970243a-5758-4994-b531-90ac34009214{fill:url(#e442282d-cd3d-4e9c-8cea-e00c7ef789d4);}.b683cbc8-a023-4f73-944f-c58bad41dbe4{fill:url(#b918d987-5506-4e6a-84d0-5ff28ee2d71f);}.b1440556-ab8a-415b-b93b-c55abd2538a2{fill:url(#f9b776a2-230d-459d-8859-5cf4694e1dd9);}.fa432a05-3017-4ae4-b3e4-99dac49cb9a4{fill:url(#ecef51cb-ee66-4ffb-992b-22f5ed11279e);}.bc56995f-d611-4eee-af30-ba03672bbf8e{fill:url(#ba436ecd-7641-4045-91be-5c7379935955);}.b44ce918-279a-4908-87c2-bdec804c59ed{mask:url(#af39bda0-6f96-44ff-a96e-807b2862f03a);}.b9ae7bc6-2a93-4b22-ac7a-6ae3802c129f{fill:url(#e13415c2-9071-4141-beaa-f6d4d8805678);}.a9362e11-9d49-46b3-8364-4a5e9c557391{filter:url(#f16f61bf-78b2-44b9-b1d1-58ac044e6cf8);}.bf314d8a-8c6e-4a61-bb0a-42216a3d4343{filter:url(#f0dabf37-a5d1-480e-8670-3f8c0bf062e0);}.a20905ae-ab16-42fe-8ea6-236dce7077e7{filter:url(#a577e76b-02c4-4da1-99c4-4a4184255d2e);}.b2e8c2f5-1fd2-434f-945d-38b9e47ed29e{filter:url(#b803fd05-cd8f-44ac-8631-e1ba5521e3a0);}</style><filter id="b803fd05-cd8f-44ac-8631-e1ba5521e3a0" x="2779.9063" y="-9317" width="1220.0937" height="32766" filterUnits="userSpaceOnUse" color-interpolation-filters="sRGB"><feFlood flood-color="#fff" result="bg"/><feBlend in="SourceGraphic" in2="bg"/></filter><mask id="b68b7a74-28d7-4cbf-bb98-311966822d9b" x="2779.9063" y="-9317" width="1220.0937" height="32766" maskUnits="userSpaceOnUse"><g class="b2e8c2f5-1fd2-434f-945d-38b9e47ed29e"/></mask><linearGradient id="b5927bd3-23b2-4346-b50c-865310c79609" x1="493.11623" y1="493.86623" x2="703.78553" y2="704.53553" gradientTransform="translate(4000 2250) rotate(180)" gradientUnits="userSpaceOnUse"><stop offset="0"/><stop offset="1" stop-color="#fff"/></linearGradient><filter id="a577e76b-02c4-4da1-99c4-4a4184255d2e" x="68.7813" y="-9317" width="2778.5781" height="32766" filterUnits="userSpaceOnUse" color-interpolation-filters="sRGB"><feFlood flood-color="#fff" result="bg"/><feBlend in="SourceGraphic" in2="bg"/></filter><mask id="b0eabcfa-b9c6-4530-8cf7-eefb6acbe641" x="68.7813" y="-9317" width="2778.5781" height="32766" maskUnits="userSpaceOnUse"><g class="a20905ae-ab16-42fe-8ea6-236dce7077e7"/></mask><linearGradient id="fe1ec5bf-1441-42a3-8fe2-7282217b72ed" x1="2514.3898" y1="1094.88977" x2="2836.8416" y2="1447.43709" xlink:href="#b5927bd3-23b2-4346-b50c-865310c79609"/><filter id="f0dabf37-a5d1-480e-8670-3f8c0bf062e0" x="0" y="-9317" width="1683.18072" height="32766" filterUnits="userSpaceOnUse" color-interpolation-filters="sRGB"><feFlood flood-color="#fff" result="bg"/><feBlend in="SourceGraphic" in2="bg"/></filter><mask id="befa2bf4-cd1e-4d42-99fc-114d22e41175" x="0" y="-9317" width="1683.18072" height="32766" maskUnits="userSpaceOnUse"><g class="bf314d8a-8c6e-4a61-bb0a-42216a3d4343"/></mask><linearGradient id="b4904cab-b3d9-4084-a900-394b21e62c33" x1="3178.63559" y1="1451.00601" x2="3634.36768" y2="1915.33748" xlink:href="#b5927bd3-23b2-4346-b50c-865310c79609"/><filter id="f16f61bf-78b2-44b9-b1d1-58ac044e6cf8" x="1694.71872" y="-9317" width="2305.28128" height="32766" filterUnits="userSpaceOnUse" color-interpolation-filters="sRGB"><feFlood flood-color="#fff" result="bg"/><feBlend in="SourceGraphic" in2="bg"/></filter><mask id="aed07561-ba7f-4026-9671-42125b082724" x="1694.71872" y="-9317" width="2305.28128" height="32766" maskUnits="userSpaceOnUse"><g class="a9362e11-9d49-46b3-8364-4a5e9c557391"/></mask><linearGradient id="a60577ec-44c6-46bc-a8e1-658e87bbd006" x1="1039.36372" y1="1003.5343" x2="1396.21121" y2="1386.17826" xlink:href="#b5927bd3-23b2-4346-b50c-865310c79609"/><clipPath id="a87f3a0a-199a-4978-a1be-b8f6ff9f2f85"><rect class="ab342731-16de-4ded-a09b-d3b7ac609067" width="4000" height="2250" transform="translate(4000 2250) rotate(180)"/></clipPath><linearGradient id="f0ffa9b5-a570-4eef-a3aa-18bb489e40d2" x1="-420.76139" y1="929.91987" x2="991.72422" y2="-141.36825" gradientTransform="translate(4000 2250) rotate(180)" gradientUnits="userSpaceOnUse"><stop offset="0" stop-color="#e9f"/><stop offset="1" stop-color="#72008b"/></linearGradient><linearGradient id="ff90ef4c-2376-4462-b77f-c59d5556fce8" x1="672.14317" y1="419.13217" x2="-688.97968" y2="1871.97652" xlink:href="#f0ffa9b5-a570-4eef-a3aa-18bb489e40d2"/><filter id="e60e3e64-89cc-4376-8220-5b79fc167982" x="2779.9063" y="1028.4063" width="1220.0937" height="1221.5937" filterUnits="userSpaceOnUse" color-interpolation-filters="sRGB"><feFlood flood-color="#fff" result="bg"/><feBlend in="SourceGraphic" in2="bg"/></filter><mask id="f25234bc-d91e-4808-a8c9-8e1b1efa1b66" x="2779.9063" y="1028.4063" width="1220.0937" height="1221.5937" maskUnits="userSpaceOnUse"><g class="ae97648e-0f24-4a63-9c05-7cc56a543877"><polygon class="eb0ba69f-19bd-4abf-9adb-df01d8953ca4" points="4000 1265.346 3043.213 2250 2779.906 2250 4000 1028.406 4000 1265.346"/></g></mask><linearGradient id="e8699fdf-53d0-4a01-99e8-caac0154ce29" x1="493.11623" y1="493.86623" x2="703.78553" y2="704.53553" gradientTransform="translate(4000 2250) rotate(180)" gradientUnits="userSpaceOnUse"><stop offset="0"/><stop offset="1"/></linearGradient><linearGradient id="eeb7b638-9f3b-4add-9a17-9240ef14327e" x1="0" y1="1125" x2="2305.28128" y2="1125" xlink:href="#f0ffa9b5-a570-4eef-a3aa-18bb489e40d2"/><filter id="b7fe7cb2-16f6-4f2f-abab-e17205b5dc6d" x="1694.71872" y="0" width="2305.28128" height="2250" filterUnits="userSpaceOnUse" color-interpolation-filters="sRGB"><feFlood flood-color="#fff" result="bg"/><feBlend in="SourceGraphic" in2="bg"/></filter><mask id="e0e34ab7-b6fb-4ce4-a5d8-3e713876d255" x="1694.71872" y="0" width="2305.28128" height="2250" maskUnits="userSpaceOnUse"><g class="e34f9605-f71d-422f-9b49-9f75502ca736"><polygon class="aafa0e8c-c45c-4c4f-8355-b3e96b203bf6" points="4000 315.187 1968.372 2250 1694.719 2250 3941.969 0 4000 0 4000 315.187"/></g></mask><linearGradient id="a3aaf3b7-73f9-443b-9d70-ed641a13b60c" x1="1039.36372" y1="1003.5343" x2="1396.21121" y2="1386.17826" xlink:href="#e8699fdf-53d0-4a01-99e8-caac0154ce29"/><linearGradient id="b19e4364-5d9a-436e-a2c1-3866930fe11f" x1="1108.368" y1="1015.61111" x2="2421.79817" y2="-283.14309" xlink:href="#f0ffa9b5-a570-4eef-a3aa-18bb489e40d2"/><linearGradient id="bcf47c73-b5f8-4c7a-808c-bda0401bd2de" x1="58.0313" y1="1125" x2="3931.2187" y2="1125" xlink:href="#f0ffa9b5-a570-4eef-a3aa-18bb489e40d2"/><filter id="acc5ed36-01aa-4e84-9855-c69ae4a1bbac" x="68.7813" y="0" width="2778.5781" height="2250" filterUnits="userSpaceOnUse" color-interpolation-filters="sRGB"><feFlood flood-color="#fff" result="bg"/><feBlend in="SourceGraphic" in2="bg"/></filter><mask id="fc9d9ac9-80c6-4e89-9ea1-e23e1bcc228d" x="68.7813" y="0" width="2778.5781" height="2250" maskUnits="userSpaceOnUse"><g class="b6acb6f0-6026-4e7a-be9c-0814a2c7f63c"><polygon class="f33c60c7-2bae-4549-b7de-33ab67956139" points="2847.359 0 283.021 2250 68.781 2250 2316 0 2847.359 0"/></g></mask><linearGradient id="bdbd2c99-1262-49e8-96b3-f98df62a40dd" x1="2514.3898" y1="1094.88977" x2="2836.8416" y2="1447.43709" xlink:href="#e8699fdf-53d0-4a01-99e8-caac0154ce29"/><linearGradient id="a4cd63b4-7ef6-4d09-a23d-b585bba1982e" x1="3113.99654" y1="395.28527" x2="3427.84916" y2="696.24019" xlink:href="#f0ffa9b5-a570-4eef-a3aa-18bb489e40d2"/><linearGradient id="b5e922cc-4444-4d56-8f87-a6812f874648" x1="1684" y1="1125" x2="4000" y2="1125" xlink:href="#f0ffa9b5-a570-4eef-a3aa-18bb489e40d2"/><linearGradient id="b9ae0889-ded1-4a81-84b9-322e5fd45d5b" x1="2613.8124" y1="1556.26565" x2="4000" y2="1556.26565" xlink:href="#f0ffa9b5-a570-4eef-a3aa-18bb489e40d2"/><linearGradient id="e442282d-cd3d-4e9c-8cea-e00c7ef789d4" x1="3196.46683" y1="1541.87674" x2="1538.1767" y2="3478.99644" xlink:href="#f0ffa9b5-a570-4eef-a3aa-18bb489e40d2"/><linearGradient id="b918d987-5506-4e6a-84d0-5ff28ee2d71f" x1="2728.3127" y1="626.28125" x2="4000" y2="626.28125" xlink:href="#f0ffa9b5-a570-4eef-a3aa-18bb489e40d2"/><linearGradient id="f9b776a2-230d-459d-8859-5cf4694e1dd9" x1="548.17896" y1="770.50992" x2="-655.1849" y2="2252.70177" xlink:href="#f0ffa9b5-a570-4eef-a3aa-18bb489e40d2"/><linearGradient id="ecef51cb-ee66-4ffb-992b-22f5ed11279e" x1="3171.96528" y1="1729.2422" x2="2203.4052" y2="2994.97619" xlink:href="#f0ffa9b5-a570-4eef-a3aa-18bb489e40d2"/><linearGradient id="ba436ecd-7641-4045-91be-5c7379935955" x1="1452.29265" y1="996.06876" x2="3029.87557" y2="-438.43003" xlink:href="#f0ffa9b5-a570-4eef-a3aa-18bb489e40d2"/><filter id="bd86b780-ed6c-4fbe-b2a2-fec2e210c854" x="0" y="0" width="1683.18072" height="1639.2032" filterUnits="userSpaceOnUse" color-interpolation-filters="sRGB"><feFlood flood-color="#fff" result="bg"/><feBlend in="SourceGraphic" in2="bg"/></filter><mask id="af39bda0-6f96-44ff-a96e-807b2862f03a" x="0" y="0" width="1683.18072" height="1639.2032" maskUnits="userSpaceOnUse"><g class="f204fad5-65bf-4974-85fe-1898c3f3a9e1"><polygon class="fcb8f4fc-70d0-4dfb-928c-fca28df6af0b" points="1683.181 0 0 1639.203 0 1387.469 1386.188 0 1683.181 0"/></g></mask><linearGradient id="e13415c2-9071-4141-beaa-f6d4d8805678" x1="3178.63559" y1="1451.00601" x2="3634.36768" y2="1915.33748" xlink:href="#e8699fdf-53d0-4a01-99e8-caac0154ce29"/></defs><g class="bd5ecc67-98a2-4c86-b47c-4b8153a0da97"><g id="a6fa9e29-7f94-426b-847b-e6f9f9fbf822" data-name="Layer 1"><g class="a75f6b96-add0-49fa-9214-dde4f16b0fa5"><polygon class="ed2e32e7-0c5a-457b-90b0-bad0257b902a" points="2779.906 2250 4000 1028.406 4000 2250 2779.906 2250"/><path class="a6d392d5-a533-47fe-ac39-0b60dd90e1bb" d="M3154.4064,1875.03129,4000,1028.4063v226.0001l-613.5313,614.28119a168.36,168.36,0,0,1-119.0937,49.375C3221.7813,1918.06259,3183.1251,1901.34369,3154.4064,1875.03129Z"/><g class="f45adeff-a7f1-4edf-a1b8-a79b1fef89f1"><g class="f45adeff-a7f1-4edf-a1b8-a79b1fef89f1"><polygon class="f4277362-6731-4dde-9708-d88a4db0453a" points="4000 1265.346 3043.213 2250 2779.906 2250 4000 1028.406 4000 1265.346"/></g></g><polygon class="b4c90c59-0a77-4280-9228-c3ad30e190ba" points="1694.719 2250 3941.969 0 4000 0 4000 1028.406 2779.906 2250 1694.719 2250"/><g class="b0f793ea-8854-41df-9cbc-4c1fffe783f8"><g class="b0f793ea-8854-41df-9cbc-4c1fffe783f8"><polygon class="ea1202da-ed25-4662-a458-86a87109c422" points="4000 315.187 1968.372 2250 1694.719 2250 3941.969 0 4000 0 4000 315.187"/></g></g><path class="bf2a4fcc-e55b-4fd1-bf48-2817d7025274" d="M1677.43722,2250l1287.5-1289.0938c2.5936,2.375,5.1251,4.8126,7.6252,7.3126a270.793,270.793,0,0,1,78.8124,190.2187c0,64.8125-23.9998,130.8438-77.6874,184.5938L2067.81231,2250Z"/><polygon class="b08b2e82-eccd-4637-969a-15d5084b8205" points="68.781 2250 2316 0 3941.969 0 1694.719 2250 68.781 2250"/><g class="e8f3cf85-3816-411f-a5b8-02bb4673a1f0"><g class="e8f3cf85-3816-411f-a5b8-02bb4673a1f0"><polygon class="bcc9281f-a826-4a7a-ae33-0a48f0df22c1" points="2847.359 0 283.021 2250 68.781 2250 2316 0 2847.359 0"/></g></g><path class="bdc593b3-c25d-45c3-8b4c-f8596794db8e" d="M68.7813,2250l1202.906-1204.3749a172.66985,172.66985,0,0,1,50.2815,121.3436c0,41.3439-15.3129,83.4688-49.5628,117.75L308.3122,2250Z"/><polygon class="edac9808-433c-4a33-a047-c3861bd28ee5" points="0 2250 0 1387.469 1386.188 0 2316 0 68.781 2250 0 2250"/><polygon class="a58ae922-676e-4c5b-8f43-b6fcea74d5d8" points="0 1387.469 0 0 1386.188 0 0 1387.469"/><path class="e970243a-5758-4994-b531-90ac34009214" d="M721.2814,665.5001,1386.1563,0h142.3124L883.6876,645.5626a132.13583,132.13583,0,0,1-93.5623,38.8124C763.9687,684.375,740.7188,677.375,721.2814,665.5001Z"/><path class="b683cbc8-a023-4f73-944f-c58bad41dbe4" d="M0,2250V2082.31258l1034.2186-1035.5a168.36055,168.36055,0,0,1,119.0941-49.3751c48.4993,0,89.1563,18.9375,118.3746,48.1876L68.7813,2250Z"/><path class="b1440556-ab8a-415b-b93b-c55abd2538a2" d="M3098.7188,1748.53129c0-41.3438,15.3124-83.46879,49.5625-117.74989L4000,778.0001v250.4062l-845.5936,846.625c-1.8439-1.6875-3.6564-3.4062-5.4064-5.15629A172.67,172.67,0,0,1,3098.7188,1748.53129Z"/><path class="fa432a05-3017-4ae4-b3e4-99dac49cb9a4" d="M664.8549,564.0749c0-28.8126,10.6876-58.1875,34.5627-82.0625L1180.6989.1373h205.3749L721.3239,665.5125a113.8614,113.8614,0,0,1-21.4066-16.8438A120.38627,120.38627,0,0,1,664.8549,564.0749Z"/><path class="bc56995f-d611-4eee-af30-ba03672bbf8e" d="M1339.4051,2250,2617.7171,970.0937a263.99267,263.99267,0,0,1,186.7187-77.4061c71.875,0,132.7816,26.5625,177.9377,68.2186L1694.87352,2250Z"/><g class="b44ce918-279a-4908-87c2-bdec804c59ed"><g class="b44ce918-279a-4908-87c2-bdec804c59ed"><polygon class="b9ae7bc6-2a93-4b22-ac7a-6ae3802c129f" points="1683.181 0 0 1639.203 0 1387.469 1386.188 0 1683.181 0"/></g></g></g></g></g></svg>